<svg width="16" height="16" viewBox="0 0 16 16" fill="none" xmlns="http://www.w3.org/2000/svg">
<path d="M7.99998 14.72C7.79998 14.72 7.59998 14.6733 7.43331 14.58C6.18665 13.9 3.99331 13.18 2.61998 13L2.42665 12.9733C1.55331 12.8667 0.833313 12.0467 0.833313 11.16V3.10667C0.833313 2.58 1.03998 2.1 1.41998 1.75334C1.79998 1.40667 2.29331 1.24 2.81331 1.28667C4.27998 1.4 6.49331 2.13334 7.74665 2.92L7.90665 3.01334C7.95331 3.04 8.05331 3.04 8.09331 3.02L8.19998 2.95334C9.45331 2.16667 11.6666 1.42 13.14 1.29334C13.1533 1.29334 13.2066 1.29334 13.22 1.29334C13.7066 1.24667 14.2066 1.42 14.58 1.76667C14.96 2.11334 15.1666 2.59334 15.1666 3.12V11.1667C15.1666 12.06 14.4466 12.8733 13.5666 12.98L13.3466 13.0067C11.9733 13.1867 9.77331 13.9133 8.55331 14.5867C8.39331 14.68 8.19998 14.72 7.99998 14.72ZM2.65331 2.28C2.43998 2.28 2.24665 2.35334 2.09331 2.49334C1.92665 2.64667 1.83331 2.86667 1.83331 3.10667V11.16C1.83331 11.5533 2.17331 11.9333 2.55331 11.9867L2.75331 12.0133C4.25331 12.2133 6.55331 12.9667 7.88665 13.6933C7.94665 13.72 8.03331 13.7267 8.06665 13.7133C9.39998 12.9733 11.7133 12.2133 13.22 12.0133L13.4466 11.9867C13.8266 11.94 14.1666 11.5533 14.1666 11.16V3.11334C14.1666 2.86667 14.0733 2.65334 13.9066 2.49334C13.7333 2.34 13.5133 2.26667 13.2666 2.28C13.2533 2.28 13.2 2.28 13.1866 2.28C11.9133 2.39334 9.85998 3.08 8.73998 3.78L8.63331 3.85334C8.26665 4.08 7.74665 4.08 7.39331 3.86L7.23331 3.76667C6.09331 3.06667 4.03998 2.38667 2.73331 2.28C2.70665 2.28 2.67998 2.28 2.65331 2.28Z" fill="#707070"/>
<path d="M8 14.16C7.72667 14.16 7.5 13.9333 7.5 13.66V3.66C7.5 3.38667 7.72667 3.16 8 3.16C8.27333 3.16 8.5 3.38667 8.5 3.66V13.66C8.5 13.94 8.27333 14.16 8 14.16Z" fill="#707070"/>
<path d="M5.16669 6.16H3.66669C3.39335 6.16 3.16669 5.93334 3.16669 5.66C3.16669 5.38667 3.39335 5.16 3.66669 5.16H5.16669C5.44002 5.16 5.66669 5.38667 5.66669 5.66C5.66669 5.93334 5.44002 6.16 5.16669 6.16Z" fill="#707070"/>
<path d="M5.66669 8.16H3.66669C3.39335 8.16 3.16669 7.93334 3.16669 7.66C3.16669 7.38667 3.39335 7.16 3.66669 7.16H5.66669C5.94002 7.16 6.16669 7.38667 6.16669 7.66C6.16669 7.93334 5.94002 8.16 5.66669 8.16Z" fill="#707070"/>
</svg>
