<svg width="16" height="16" viewBox="0 0 16 16" fill="none" xmlns="http://www.w3.org/2000/svg">
<path d="M5.33331 3.83337C5.05998 3.83337 4.83331 3.60671 4.83331 3.33337V1.33337C4.83331 1.06004 5.05998 0.833374 5.33331 0.833374C5.60665 0.833374 5.83331 1.06004 5.83331 1.33337V3.33337C5.83331 3.60671 5.60665 3.83337 5.33331 3.83337Z" fill="#707070"/>
<path d="M10.6667 3.83337C10.3934 3.83337 10.1667 3.60671 10.1667 3.33337V1.33337C10.1667 1.06004 10.3934 0.833374 10.6667 0.833374C10.94 0.833374 11.1667 1.06004 11.1667 1.33337V3.33337C11.1667 3.60671 10.94 3.83337 10.6667 3.83337Z" fill="#707070"/>
<path d="M12.1333 14.7667C10.68 14.7667 9.5 13.5867 9.5 12.1333C9.5 10.68 10.68 9.5 12.1333 9.5C13.5867 9.5 14.7667 10.68 14.7667 12.1333C14.7667 13.5867 13.5867 14.7667 12.1333 14.7667ZM12.1333 10.5C11.2333 10.5 10.5 11.2333 10.5 12.1333C10.5 13.0333 11.2333 13.7667 12.1333 13.7667C13.0333 13.7667 13.7667 13.0333 13.7667 12.1333C13.7667 11.2333 13.0333 10.5 12.1333 10.5Z" fill="#707070"/>
<path d="M14.6666 15.1667C14.54 15.1667 14.4133 15.12 14.3133 15.02L13.6466 14.3534C13.4533 14.16 13.4533 13.84 13.6466 13.6467C13.84 13.4534 14.16 13.4534 14.3533 13.6467L15.02 14.3134C15.2133 14.5067 15.2133 14.8267 15.02 15.02C14.92 15.12 14.7933 15.1667 14.6666 15.1667Z" fill="#707070"/>
<path d="M5.66667 9.6667C5.58 9.6667 5.49333 9.64671 5.41333 9.61338C5.32666 9.58005 5.25333 9.53337 5.19333 9.47337C5.16666 9.44003 5.13333 9.4067 5.11333 9.37337C5.08667 9.33337 5.06667 9.29337 5.05333 9.25337C5.03333 9.21337 5.02 9.17338 5.01334 9.13338C5.00667 9.08671 5 9.04004 5 9.00004C5 8.8267 5.07333 8.65338 5.19333 8.52671C5.25333 8.46671 5.32666 8.42003 5.41333 8.3867C5.65333 8.28003 5.95334 8.34004 6.14 8.52671C6.26 8.65338 6.33333 8.8267 6.33333 9.00004C6.33333 9.04004 6.32666 9.08671 6.32 9.13338C6.31333 9.17338 6.3 9.21337 6.28 9.25337C6.26667 9.29337 6.24667 9.33337 6.22 9.37337C6.19333 9.4067 6.16667 9.44003 6.14 9.47337C6.01334 9.59337 5.84 9.6667 5.66667 9.6667Z" fill="#707070"/>
<path d="M7.99998 9.66667C7.82665 9.66667 7.65331 9.59333 7.52664 9.47333C7.40664 9.34666 7.33331 9.18 7.33331 9C7.33331 8.91334 7.35331 8.82667 7.38665 8.74667C7.41998 8.66667 7.46664 8.59334 7.52664 8.52667C7.77331 8.28001 8.21998 8.28001 8.47332 8.52667C8.59332 8.65334 8.66665 8.82667 8.66665 9C8.66665 9.04 8.65998 9.08668 8.65331 9.13334C8.64664 9.17334 8.63331 9.21334 8.61331 9.25334C8.59998 9.29334 8.57998 9.33333 8.55331 9.37333C8.52665 9.40667 8.49998 9.44 8.47332 9.47333C8.34665 9.59333 8.17331 9.66667 7.99998 9.66667Z" fill="#707070"/>
<path d="M5.66667 12C5.49333 12 5.32 11.9267 5.19333 11.8067C5.07333 11.68 5 11.5067 5 11.3334C5 11.2467 5.02 11.16 5.05333 11.08C5.08667 10.9934 5.13333 10.92 5.19333 10.86C5.44 10.6134 5.89334 10.6134 6.14 10.86C6.26 10.9867 6.33333 11.16 6.33333 11.3334C6.33333 11.5067 6.26 11.68 6.14 11.8067C6.01334 11.9267 5.84 12 5.66667 12Z" fill="#707070"/>
<path d="M13.6666 6.55994H2.33331C2.05998 6.55994 1.83331 6.33327 1.83331 6.05994C1.83331 5.7866 2.05998 5.55994 2.33331 5.55994H13.6666C13.94 5.55994 14.1666 5.7866 14.1666 6.05994C14.1666 6.33327 13.94 6.55994 13.6666 6.55994Z" fill="#707070"/>
<path d="M8.91333 15.1667H5.33333C2.9 15.1667 1.5 13.7667 1.5 11.3334V5.66671C1.5 3.23337 2.9 1.83337 5.33333 1.83337H10.6667C13.1 1.83337 14.5 3.23337 14.5 5.66671V8.66671C14.5 8.94004 14.2733 9.16671 14 9.16671C13.7267 9.16671 13.5 8.94004 13.5 8.66671V5.66671C13.5 3.76004 12.5733 2.83337 10.6667 2.83337H5.33333C3.42667 2.83337 2.5 3.76004 2.5 5.66671V11.3334C2.5 13.24 3.42667 14.1667 5.33333 14.1667H8.91333C9.18666 14.1667 9.41333 14.3934 9.41333 14.6667C9.41333 14.94 9.18666 15.1667 8.91333 15.1667Z" fill="#707070"/>
</svg>
