<svg width="48" height="49" viewBox="0 0 48 49" fill="none" xmlns="http://www.w3.org/2000/svg">
<rect width="48" height="49" rx="24" fill="white"/>
<g clip-path="url(#clip0_108_591)">
<path d="M20.6672 24.5C20.6672 22.6591 22.1591 21.1664 24 21.1664C25.8409 21.1664 27.3336 22.6591 27.3336 24.5C27.3336 26.3409 25.8409 27.8336 24 27.8336C22.1591 27.8336 20.6672 26.3409 20.6672 24.5ZM18.8651 24.5C18.8651 27.336 21.164 29.6349 24 29.6349C26.836 29.6349 29.1349 27.336 29.1349 24.5C29.1349 21.664 26.836 19.3651 24 19.3651C21.164 19.3651 18.8651 21.664 18.8651 24.5ZM28.1381 19.1616C28.1381 19.8239 28.6753 20.3619 29.3385 20.3619C30.0008 20.3619 30.5388 19.8239 30.5388 19.1616C30.5388 18.4992 30.0016 17.962 29.3385 17.962C28.6753 17.962 28.1381 18.4992 28.1381 19.1616ZM19.9596 32.6397C18.9847 32.5953 18.4548 32.433 18.1026 32.2956C17.6357 32.1139 17.3029 31.8974 16.9523 31.5477C16.6026 31.1979 16.3853 30.8651 16.2044 30.3982C16.067 30.046 15.9047 29.5162 15.8603 28.5412C15.8118 27.4871 15.8021 27.1704 15.8021 24.5C15.8021 21.8296 15.8126 21.5137 15.8603 20.4588C15.9047 19.4838 16.0679 18.9548 16.2044 18.6018C16.3861 18.1349 16.6026 17.8021 16.9523 17.4515C17.3021 17.1018 17.6349 16.8845 18.1026 16.7036C18.4548 16.5662 18.9847 16.4039 19.9596 16.3595C21.0137 16.311 21.3304 16.3013 24 16.3013C26.6704 16.3013 26.9863 16.3118 28.0412 16.3595C29.0162 16.4039 29.5452 16.567 29.8982 16.7036C30.3651 16.8845 30.6979 17.1018 31.0485 17.4515C31.3982 17.8013 31.6147 18.1349 31.7964 18.6018C31.9338 18.954 32.0961 19.4838 32.1406 20.4588C32.189 21.5137 32.1987 21.8296 32.1987 24.5C32.1987 27.1696 32.189 27.4863 32.1406 28.5412C32.0961 29.5162 31.933 30.046 31.7964 30.3982C31.6147 30.8651 31.3982 31.1979 31.0485 31.5477C30.6987 31.8974 30.3651 32.1139 29.8982 32.2956C29.546 32.433 29.0162 32.5953 28.0412 32.6397C26.9871 32.6882 26.6704 32.6979 24 32.6979C21.3304 32.6979 21.0137 32.6882 19.9596 32.6397ZM19.8772 14.5606C18.8126 14.609 18.0856 14.7779 17.4499 15.025C16.7924 15.2803 16.2351 15.6228 15.6785 16.1785C15.1228 16.7342 14.7803 17.2916 14.525 17.9499C14.2779 18.5856 14.109 19.3126 14.0606 20.3772C14.0113 21.4435 14 21.7843 14 24.5C14 27.2157 14.0113 27.5565 14.0606 28.6228C14.109 29.6874 14.2779 30.4144 14.525 31.0501C14.7803 31.7076 15.122 32.2658 15.6785 32.8215C16.2342 33.3772 16.7916 33.7189 17.4499 33.975C18.0864 34.2221 18.8126 34.391 19.8772 34.4394C20.9443 34.4879 21.2843 34.5 24 34.5C26.7165 34.5 27.0565 34.4887 28.1228 34.4394C29.1874 34.391 29.9144 34.2221 30.5501 33.975C31.2076 33.7189 31.7649 33.3772 32.3215 32.8215C32.8772 32.2658 33.2189 31.7076 33.475 31.0501C33.7221 30.4144 33.8918 29.6874 33.9394 28.6228C33.9879 27.5557 33.9992 27.2157 33.9992 24.5C33.9992 21.7843 33.9879 21.4435 33.9394 20.3772C33.891 19.3126 33.7221 18.5856 33.475 17.9499C33.2189 17.2924 32.8772 16.7351 32.3215 16.1785C31.7658 15.6228 31.2076 15.2803 30.5509 15.025C29.9144 14.7779 29.1874 14.6082 28.1236 14.5606C27.0574 14.5121 26.7165 14.5 24.0008 14.5C21.2843 14.5 20.9443 14.5113 19.8772 14.5606Z" fill="#F25C54"/>
</g>
<defs>
<clipPath id="clip0_108_591">
<rect width="20" height="20" fill="white" transform="translate(14 14.5)"/>
</clipPath>
</defs>
</svg>
