<svg width="48" height="49" viewBox="0 0 48 49" fill="none" xmlns="http://www.w3.org/2000/svg">
<rect width="48" height="49" rx="24" fill="white"/>
<g clip-path="url(#clip0_108_589)">
<path d="M14 16.823C14 16.1496 14.2252 15.594 14.6757 15.1563C15.1261 14.7186 15.7117 14.4998 16.4324 14.4998C17.1403 14.4998 17.713 14.7152 18.1506 15.1462C18.601 15.5907 18.8263 16.1698 18.8263 16.8836C18.8263 17.5301 18.6075 18.0688 18.1699 18.4997C17.7194 18.9442 17.1274 19.1664 16.3938 19.1664H16.3745C15.6667 19.1664 15.094 18.9442 14.6564 18.4997C14.2188 18.0553 14 17.4964 14 16.823ZM14.251 34.4997V21.0048H18.5367V34.4997H14.251ZM20.9112 34.4997H25.1969V26.9644C25.1969 26.493 25.2484 26.1294 25.3514 25.8735C25.5315 25.4156 25.805 25.0283 26.1718 24.7119C26.5386 24.3954 26.9987 24.2371 27.5521 24.2371C28.9936 24.2371 29.7143 25.2539 29.7143 27.2876V34.4997H34V26.7624C34 24.7691 33.5496 23.2573 32.6486 22.227C31.7477 21.1967 30.5573 20.6816 29.0772 20.6816C27.417 20.6816 26.1236 21.429 25.1969 22.924V22.9644H25.1776L25.1969 22.924V21.0048H20.9112C20.9369 21.4358 20.9498 22.7758 20.9498 25.025C20.9498 27.2741 20.9369 30.4324 20.9112 34.4997Z" fill="#F25C54"/>
</g>
<defs>
<clipPath id="clip0_108_589">
<rect width="20" height="20" fill="white" transform="translate(14 14.5)"/>
</clipPath>
</defs>
</svg>
