<svg width="24" height="24" viewBox="0 0 24 24" fill="none" xmlns="http://www.w3.org/2000/svg">
<path d="M12 22.75C17.93 22.75 22.75 17.93 22.75 12C22.75 6.07 17.93 1.25 12 1.25C6.06997 1.25 1.24997 6.07 1.24997 12C1.24997 17.93 6.06997 22.75 12 22.75ZM12 2.75C17.1 2.75 21.25 6.9 21.25 12C21.25 17.1 17.1 21.25 12 21.25C6.89997 21.25 2.74997 17.1 2.74997 12C2.74997 6.9 6.89997 2.75 12 2.75Z" fill="#F25C54"/>
<path d="M10.74 16.2799C10.93 16.2799 11.12 16.2099 11.27 16.0599L14.8 12.5299C15.09 12.2399 15.09 11.7599 14.8 11.4699L11.27 7.93991C10.98 7.64991 10.5 7.64991 10.21 7.93991C9.92002 8.22991 9.92002 8.70991 10.21 8.99991L13.21 11.9999L10.21 14.9999C9.92002 15.2899 9.92002 15.7699 10.21 16.0599C10.35 16.2099 10.54 16.2799 10.74 16.2799Z" fill="#F25C54"/>
</svg>
