<svg width="16" height="16" viewBox="0 0 16 16" fill="none" xmlns="http://www.w3.org/2000/svg">
<path d="M11.9999 5.27334C11.9799 5.27334 11.9665 5.27334 11.9465 5.27334H11.9132C10.6532 5.23334 9.7132 4.26001 9.7132 3.06001C9.7132 1.83334 10.7132 0.840004 11.9332 0.840004C13.1532 0.840004 14.1532 1.84001 14.1532 3.06001C14.1465 4.26667 13.2065 5.24001 12.0065 5.28001C12.0065 5.27334 12.0065 5.27334 11.9999 5.27334ZM11.9332 1.83334C11.2599 1.83334 10.7132 2.38001 10.7132 3.05334C10.7132 3.71334 11.2265 4.24668 11.8865 4.27334C11.8932 4.26668 11.9465 4.26668 12.0065 4.27334C12.6532 4.24001 13.1532 3.70668 13.1599 3.05334C13.1599 2.38001 12.6132 1.83334 11.9332 1.83334Z" fill="#707070"/>
<path d="M12.0067 10.1867C11.7467 10.1867 11.4867 10.1667 11.2267 10.12C10.9534 10.0733 10.7734 9.81335 10.82 9.54002C10.8667 9.26669 11.1267 9.08669 11.4 9.13335C12.22 9.27335 13.0867 9.12003 13.6667 8.73336C13.98 8.52669 14.1467 8.26668 14.1467 8.00668C14.1467 7.74668 13.9734 7.49335 13.6667 7.28668C13.0867 6.90002 12.2067 6.74669 11.38 6.89335C11.1067 6.94669 10.8467 6.76002 10.8 6.48668C10.7534 6.21335 10.9334 5.95335 11.2067 5.90669C12.2934 5.71335 13.42 5.92002 14.22 6.45335C14.8067 6.84668 15.1467 7.40668 15.1467 8.00668C15.1467 8.60002 14.8134 9.16669 14.22 9.56669C13.6134 9.96669 12.8267 10.1867 12.0067 10.1867Z" fill="#707070"/>
<path d="M3.98001 5.27334C3.97334 5.27334 3.96667 5.27334 3.96667 5.27334C2.76667 5.23334 1.82667 4.26 1.82001 3.06C1.82001 1.83333 2.82001 0.833336 4.04001 0.833336C5.26001 0.833336 6.26001 1.83334 6.26001 3.05334C6.26001 4.26 5.32001 5.23334 4.12001 5.27334L3.98001 4.77334L4.02667 5.27334C4.01334 5.27334 3.99334 5.27334 3.98001 5.27334ZM4.04667 4.27334C4.08667 4.27334 4.12001 4.27333 4.16001 4.28C4.75334 4.25333 5.27334 3.72 5.27334 3.06C5.27334 2.38667 4.72668 1.84 4.05334 1.84C3.38001 1.84 2.83334 2.38667 2.83334 3.06C2.83334 3.71333 3.34001 4.24 3.98667 4.28C3.99334 4.27333 4.02001 4.27334 4.04667 4.27334Z" fill="#707070"/>
<path d="M3.97331 10.1867C3.15331 10.1867 2.36665 9.96669 1.75998 9.56669C1.17331 9.17336 0.833313 8.60668 0.833313 8.00668C0.833313 7.41335 1.17331 6.84668 1.75998 6.45335C2.55998 5.92002 3.68665 5.71335 4.77331 5.90669C5.04665 5.95335 5.22665 6.21335 5.17998 6.48668C5.13331 6.76002 4.87331 6.94669 4.59998 6.89335C3.77331 6.74669 2.89998 6.90002 2.31331 7.28668C1.99998 7.49335 1.83331 7.74668 1.83331 8.00668C1.83331 8.26668 2.00665 8.52669 2.31331 8.73336C2.89331 9.12003 3.75998 9.27335 4.57998 9.13335C4.85331 9.08669 5.11331 9.27335 5.15998 9.54002C5.20665 9.81335 5.02665 10.0733 4.75331 10.12C4.49331 10.1667 4.23331 10.1867 3.97331 10.1867Z" fill="#707070"/>
<path d="M7.99986 10.2533C7.97986 10.2533 7.96653 10.2533 7.94653 10.2533H7.9132C6.6532 10.2133 5.7132 9.23999 5.7132 8.03999C5.7132 6.81332 6.7132 5.81998 7.9332 5.81998C9.1532 5.81998 10.1532 6.81999 10.1532 8.03999C10.1465 9.24665 9.20653 10.22 8.00653 10.26C8.00653 10.2533 8.00653 10.2533 7.99986 10.2533ZM7.9332 6.81332C7.25986 6.81332 6.7132 7.35999 6.7132 8.03332C6.7132 8.69332 7.22653 9.22666 7.88653 9.25332C7.8932 9.24666 7.94653 9.24666 8.00653 9.25332C8.65319 9.21999 9.1532 8.68666 9.15986 8.03332C9.15986 7.36666 8.6132 6.81332 7.9332 6.81332Z" fill="#707070"/>
<path d="M7.99988 15.1733C7.19988 15.1733 6.39988 14.9667 5.77988 14.5467C5.19321 14.1533 4.85321 13.5933 4.85321 12.9933C4.85321 12.4 5.18654 11.8266 5.77988 11.4333C7.02654 10.6066 8.97988 10.6066 10.2199 11.4333C10.8065 11.8266 11.1465 12.3867 11.1465 12.9867C11.1465 13.58 10.8132 14.1533 10.2199 14.5467C9.59988 14.96 8.79988 15.1733 7.99988 15.1733ZM6.33321 12.2733C6.01988 12.48 5.85321 12.74 5.85321 13C5.85321 13.26 6.02654 13.5133 6.33321 13.72C7.23321 14.3267 8.75988 14.3267 9.65988 13.72C9.97321 13.5133 10.1399 13.2533 10.1399 12.9933C10.1399 12.7333 9.96655 12.48 9.65988 12.2733C8.76655 11.6667 7.23988 11.6733 6.33321 12.2733Z" fill="#707070"/>
</svg>
