<svg width="145" height="145" viewBox="0 0 145 145" fill="none" xmlns="http://www.w3.org/2000/svg">
<path d="M130.065 56.724C130.065 56.724 128.29 64.8904 125.962 68.759L123.302 67.8194L121.98 68.9272L116.357 73.66C116.357 73.66 107.848 70.8238 106.268 68.0543C104.687 65.2848 106.879 61.6337 106.879 61.6337L112.433 48.2647L112.482 48.2386L114.869 46.9655C114.869 46.9655 115.301 46.9104 115.957 46.864C116.18 46.8466 116.432 46.835 116.702 46.8234C118.033 46.7683 119.79 46.8031 120.936 47.2352C122.127 47.6985 123.413 47.8657 124.683 47.7224C124.683 47.7224 127.061 50.9124 128.54 53.1338C130.019 55.3552 130.065 56.724 130.065 56.724Z" fill="#0096FF" fill-opacity="0.8"/>
<path d="M98.9567 82.3802C98.9567 82.3802 97.0427 87.4407 96.7411 90.4538C96.4395 93.4669 100.154 98.5999 100.154 98.5999C100.154 98.5999 98.3564 101.813 98.9567 102.819C99.557 103.826 101.277 101.311 102.129 97.9967C102.982 94.6821 101.462 90.1668 101.462 90.1668C101.462 90.1668 103.919 86.6867 104.046 85.1613C104.174 83.6359 98.9567 82.3802 98.9567 82.3802Z" fill="white"/>
<path d="M98.9915 82.3802C98.9915 82.3802 97.0485 87.4407 96.7411 90.4538C96.4337 93.4669 100.221 98.5912 100.221 98.5912C100.221 98.5912 98.3941 101.804 99.0002 102.811C99.6063 103.817 101.375 101.303 102.228 97.9881C103.081 94.6734 101.549 90.1581 101.549 90.1581C101.549 90.1581 104.049 86.678 104.177 85.1526C104.304 83.6272 98.9915 82.3802 98.9915 82.3802Z" stroke="#263238" stroke-linecap="round" stroke-linejoin="round"/>
<path d="M99.6324 99.3133C99.6324 99.3133 99.1394 98.4085 99.4265 98.1533C99.7136 97.8981 100.781 98.5216 100.946 98.974C101.111 99.4264 101.929 98.6985 101.929 98.6985L102.402 96.9991C102.63 97.5142 102.803 98.0517 102.918 98.6028C102.959 99.0958 102.048 100.03 101.932 101.193C101.796 102.558 100.125 103.904 99.1394 103.779C98.1534 103.655 98.7276 100.711 99.6324 99.3133Z" fill="#263238"/>
<path d="M102.628 98.3999C102.091 99.1912 101.63 100.032 101.253 100.911C101.007 101.465 100.914 102.071 100.447 102.469C100.015 102.818 99.5029 103.056 98.9567 103.162" stroke="white" stroke-linecap="round" stroke-linejoin="round"/>
<path opacity="0.1" d="M121.98 68.9272L116.357 73.66C116.357 73.66 107.848 70.8238 106.268 68.0543C104.687 65.2848 106.879 61.6337 106.879 61.6337L112.433 48.2647L112.482 48.2386C113.642 47.9109 114.802 47.2584 115.962 46.864C116.218 46.7739 116.478 46.6993 116.742 46.6407C116.742 46.7016 116.719 46.7625 116.708 46.8234C115.711 52.4228 116.838 58.1928 119.869 63.0054C120.475 63.9566 120.707 65.0992 121.174 66.1229C121.489 66.7533 121.732 67.4179 121.896 68.1036C121.948 68.3751 121.976 68.6507 121.98 68.9272Z" fill="black"/>
<path d="M121.626 49.3521C121.626 49.3521 121.788 50.4889 123.462 50.7035C123.95 50.7644 124.446 50.7 124.903 50.5163C125.359 50.3327 125.761 50.0358 126.072 49.6537C125.906 48.6692 125.913 47.6634 126.092 46.6812C126.382 45.1036 126.863 44.6309 126.863 44.6309C126.863 44.6309 128.806 44.6541 128.925 43.1345C129.044 41.6149 127.136 40.7855 126.507 41.4293C125.877 42.0731 125.057 39.727 125.057 39.727L122.832 38.4452L121.2 36.9952L119.929 38.2219C119.929 38.2219 119.512 39.6719 119.413 40.3679C119.315 41.0639 118.833 42.2906 118.833 42.8967C118.833 43.5028 119.007 46.8378 119.384 47.8876C119.761 48.9374 120.744 49.2332 121.185 49.1491C121.626 49.065 121.626 49.3521 121.626 49.3521Z" fill="white"/>
<path d="M104.255 115.13C104.052 114.089 104.223 112.88 104.699 111.609C105.525 109.408 106.268 94.9952 108.361 93.3393C109.713 92.2721 113.051 93.7048 113.051 93.7048C113.169 95.3856 113.169 97.0728 113.051 98.7537C112.868 101.874 107.181 112.155 107.135 113.074C107.177 113.359 107.288 113.629 107.457 113.863L104.255 115.13Z" fill="white"/>
<path d="M104.255 115.13C104.052 114.089 104.223 112.88 104.699 111.609C105.525 109.408 106.268 94.9952 108.361 93.3393C109.713 92.2721 113.051 93.7048 113.051 93.7048C113.169 95.3856 113.169 97.0728 113.051 98.7537C112.868 101.874 107.181 112.155 107.135 113.074C107.177 113.359 107.288 113.629 107.457 113.863L104.255 115.13Z" stroke="#263238" stroke-linecap="round" stroke-linejoin="round"/>
<path d="M104.362 112.691C104.362 112.691 103.646 114.866 103.762 116.107C103.878 117.348 104.774 116.673 106.543 118.717C108.312 120.762 109.91 120.985 110.49 120.585C111.07 120.185 110.725 119.149 108.927 116.107C107.129 113.065 107.796 114.399 107.796 114.399C107.796 114.399 108.161 113.132 107.468 112.949C106.465 112.688 105.87 114.147 105.241 114.147C104.612 114.147 104.362 112.691 104.362 112.691Z" fill="#263238"/>
<path d="M103.962 115.51C104.114 115.736 104.305 115.933 104.528 116.09C104.963 116.403 105.467 116.6 105.917 116.896C106.47 117.306 106.98 117.772 107.436 118.288C107.773 118.63 108.126 118.955 108.492 119.265C108.77 119.523 109.092 119.729 109.443 119.871C109.619 119.943 109.81 119.971 109.999 119.955C110.189 119.939 110.372 119.879 110.533 119.779" stroke="white" stroke-linecap="round" stroke-linejoin="round"/>
<path d="M121.635 36.6183C120.84 37.2447 119.982 37.9639 119.663 38.9644C119.344 39.9649 119.434 41.0785 119.019 42.05C118.729 42.7228 118.854 43.674 118.894 44.3845C118.963 45.4999 119.113 46.6087 119.344 47.7021C119.512 48.517 119.854 49.0303 120.715 49.1318C121.577 49.2333 122.49 48.7925 123.221 48.4126C124.401 47.8036 125.799 45.8577 126.498 44.6977C127.426 44.4773 129.198 44.5904 128.876 42.8156C128.554 41.0408 127.217 41.9021 126.846 42.4125" stroke="#263238" stroke-linecap="round" stroke-linejoin="round"/>
<path d="M122.177 41.76C122.635 41.2757 123.108 41.4236 123.653 41.76" stroke="#263238" stroke-linecap="round" stroke-linejoin="round"/>
<path d="M121.005 42.079C121.066 42.4228 121.055 42.7753 120.974 43.1149C120.893 43.4544 120.744 43.7739 120.536 44.0539C120.4 44.1917 120.304 44.3643 120.26 44.5527C120.264 44.6617 120.291 44.7686 120.342 44.8654C120.392 44.9623 120.463 45.0466 120.55 45.1124" stroke="#263238" stroke-linecap="round" stroke-linejoin="round"/>
<path d="M120.965 46.3449C121.667 46.4058 122.064 46.2404 122.438 45.701" stroke="#263238" stroke-linecap="round" stroke-linejoin="round"/>
<path d="M122.893 43.0534C122.873 43.2999 122.754 43.4913 122.632 43.4826C122.51 43.4739 122.426 43.2622 122.45 43.0157C122.473 42.7692 122.589 42.5749 122.711 42.5865C122.832 42.5981 122.916 42.8069 122.893 43.0534Z" fill="#263238"/>
<path d="M120.237 42.7025C120.214 42.949 120.098 43.1404 119.973 43.1317C119.848 43.123 119.77 42.9113 119.79 42.6619C119.811 42.4125 119.93 42.224 120.054 42.2356C120.179 42.2472 120.257 42.456 120.237 42.7025Z" fill="#263238"/>
<path d="M119.506 41.3888C119.566 41.3361 119.635 41.2963 119.711 41.2717C119.787 41.2472 119.867 41.2385 119.946 41.2461C120.025 41.2537 120.102 41.2775 120.171 41.316C120.241 41.3545 120.302 41.4069 120.35 41.47" stroke="#263238" stroke-linecap="round" stroke-linejoin="round"/>
<path d="M126.498 44.6977C126.235 45.6034 126.064 46.5331 125.988 47.473C125.875 48.1981 125.9 48.9382 126.063 49.6538C125.619 50.3788 124.474 50.7964 123.627 50.7239C123.145 50.6989 122.678 50.5425 122.278 50.2715C122.081 50.134 121.919 49.9517 121.805 49.7395C121.692 49.5273 121.631 49.2912 121.626 49.0506" stroke="#263238" stroke-linecap="round" stroke-linejoin="round"/>
<path d="M106.14 67.2162C106.14 67.2162 111.232 72.4188 116.766 73.3062C116.766 73.3062 118.317 76.0728 117.54 78.7292C116.763 81.3856 113.77 92.8957 113.77 92.8957L108.141 92.22V78.1753C108.141 78.1753 106.268 82.9487 104.536 85.2803L98.9567 82.3803C98.9567 82.3803 100.836 71.5343 106.14 67.2162Z" fill="#263238"/>
<path d="M106.268 74.1617L107.961 76.0989L108.141 78.1753" stroke="white" stroke-linecap="round" stroke-linejoin="round"/>
<path d="M107.204 89.1866C107.204 89.1866 106.897 90.9672 107.573 93.728C107.573 93.728 111.502 94.772 113.898 94.0354C113.898 94.0354 115.057 91.5791 115.246 90.5989C115.246 90.5989 111.38 88.3253 107.204 89.1866Z" fill="#263238"/>
<path d="M97.991 83.5374C97.991 83.5374 100.633 85.6254 103.948 86.2373C103.948 86.2373 105.638 85.0773 106.268 84.274C106.268 84.274 102.66 80.649 98.4231 80.649L97.991 83.5374Z" fill="#263238"/>
<path d="M122.287 59.7632C122.287 59.7632 123.137 56.5268 125.962 55.7583" stroke="#263238" stroke-linecap="round" stroke-linejoin="round"/>
<path d="M126.924 42.2587C126.66 42.4675 126.739 42.9141 126.536 43.1867C126.449 43.3077 126.336 43.4084 126.207 43.482C126.077 43.5555 125.933 43.6002 125.785 43.613C125.759 43.6232 125.731 43.6232 125.706 43.613C125.685 43.5934 125.672 43.5665 125.669 43.5376C125.622 43.1019 125.622 42.6625 125.669 42.2268C125.669 41.5047 125.379 41.1625 124.88 40.6985C124.5 40.3389 124.511 39.698 124.149 39.3181C123.866 39.065 123.496 38.9328 123.117 38.9498C122.742 38.9654 122.366 38.9489 121.994 38.9005C121.649 38.8207 121.335 38.6404 121.092 38.3824C120.849 38.1243 120.687 37.8001 120.628 37.4505C120.048 37.9116 119.552 39.4805 119.552 39.4805L119.187 39.1615C118.76 38.731 118.486 38.1724 118.406 37.5712C118.326 36.97 118.446 36.3592 118.746 35.8323C119.076 35.3091 119.549 34.892 120.11 34.6312C120.671 34.3704 121.295 34.277 121.907 34.362C122.719 34.4751 123.473 34.8782 124.291 34.942C125.286 35.0319 126.321 34.6259 127.269 34.942C128.218 35.2581 128.803 36.2122 129.082 37.1692C129.36 38.1262 129.412 39.1383 129.711 40.0895C129.831 40.3974 129.921 40.7159 129.981 41.0407C130.022 41.4221 129.949 41.8071 129.77 42.1468C129.592 42.4865 129.317 42.7657 128.98 42.9489C128.98 42.9489 128.693 40.8667 126.924 42.2587Z" fill="#263238"/>
<path opacity="0.2" d="M119.547 38.2568C119.356 37.9815 119.235 37.664 119.194 37.3316C119.153 36.9992 119.193 36.6619 119.312 36.3486C119.439 36.0385 119.658 35.7743 119.938 35.591C120.219 35.4077 120.548 35.3139 120.884 35.322C121.554 35.3684 122.107 35.8614 122.534 36.3863C122.96 36.9112 123.325 37.4999 123.885 37.874C124.5 38.2829 125.268 38.3844 125.915 38.7237C126.426 38.9995 126.851 39.4116 127.143 39.9143C127.434 40.4171 127.58 40.9906 127.565 41.5715" stroke="white" stroke-linecap="round" stroke-linejoin="round"/>
<path opacity="0.2" d="M123.679 35.9745C123.969 36.4994 124.549 36.7807 125.129 36.9431C125.716 37.0575 126.289 37.2324 126.84 37.4651C127.248 37.686 127.587 38.0134 127.823 38.4123C128.059 38.8111 128.183 39.2666 128.18 39.73" stroke="white" stroke-linecap="round" stroke-linejoin="round"/>
<path d="M85.291 28.3448L63.7723 80.4429C63.3219 81.5332 63.8407 82.7823 64.9311 83.2327L93.2199 94.9172C94.3103 95.3675 95.5593 94.8487 96.0097 93.7583L117.528 41.6603C117.979 40.5699 117.46 39.3209 116.37 38.8705L88.0808 27.186C86.9904 26.7356 85.7414 27.2544 85.291 28.3448Z" fill="white" stroke="#263238" stroke-width="0.995389" stroke-miterlimit="10"/>
<path d="M110.246 42.8968L109.211 45.3937C109.061 45.7551 108.774 46.0421 108.412 46.1917C108.05 46.3412 107.644 46.3411 107.283 46.1912L90.2364 39.1152C89.9402 38.9925 89.6919 38.7768 89.5292 38.5005C89.3665 38.2243 89.2981 37.9025 89.3345 37.584C89.3497 37.4472 89.3849 37.3133 89.4389 37.1867L90.4742 34.6898C90.5485 34.5105 90.6574 34.3476 90.7948 34.2104C90.9321 34.0733 91.0951 33.9646 91.2745 33.8905C91.4539 33.8164 91.6461 33.7784 91.8402 33.7787C92.0343 33.7791 92.2264 33.8176 92.4056 33.8923L109.452 40.9683C109.631 41.0426 109.793 41.1514 109.93 41.2886C110.067 41.4258 110.175 41.5886 110.249 41.7677C110.323 41.9468 110.361 42.1388 110.36 42.3325C110.36 42.5263 110.321 42.718 110.246 42.8968Z" fill="#F25C54"/>
<path d="M98.0925 38.0132L97.2225 40.0954L96.8368 39.9359L97.208 39.0427L96.1321 38.5961L95.7609 39.4893L95.3752 39.3269L96.2452 37.2476L96.6338 37.4071L96.28 38.28L97.3559 38.7266L97.7126 37.8566L98.0925 38.0132Z" fill="#263238"/>
<path d="M99.5193 40.2548L98.2723 39.7386C98.2519 39.8621 98.2767 39.9887 98.3423 40.0953C98.4078 40.2019 98.5096 40.2812 98.629 40.3186C98.708 40.3537 98.7934 40.3719 98.8798 40.3719C98.9663 40.3719 99.0517 40.3537 99.1307 40.3186L99.2351 40.6289C99.0652 40.6981 98.8791 40.7174 98.6986 40.6847C98.5181 40.652 98.3507 40.5685 98.2159 40.444C98.0811 40.3196 97.9846 40.1594 97.9376 39.9821C97.8905 39.8047 97.895 39.6177 97.9504 39.4428C97.992 39.3329 98.0559 39.2328 98.138 39.1488C98.2202 39.0647 98.3188 38.9986 98.4277 38.9544C98.5367 38.9103 98.6535 38.8892 98.771 38.8924C98.8885 38.8956 99.004 38.9231 99.1104 38.973C99.2212 39.0134 99.3222 39.0767 99.4069 39.1587C99.4916 39.2408 99.558 39.3398 99.6018 39.4493C99.6456 39.5588 99.6658 39.6763 99.6611 39.7941C99.6563 39.9119 99.6268 40.0274 99.5744 40.133L99.5193 40.2548ZM98.3738 39.4892L99.2728 39.8633C99.309 39.7479 99.299 39.623 99.2449 39.5148C99.1908 39.4066 99.0969 39.3236 98.9828 39.2833C98.8739 39.2352 98.751 39.2297 98.6382 39.2678C98.5255 39.3059 98.4311 39.3849 98.3738 39.4892Z" fill="#263238"/>
<path d="M100.517 38.8745L100.888 39.0282L99.9717 41.2351L99.6005 41.0784L100.517 38.8745Z" fill="#263238"/>
<path d="M101.375 39.2311L101.747 39.3848L100.833 41.5917L100.462 41.4351L101.375 39.2311Z" fill="#263238"/>
<path d="M101.517 40.945C101.58 40.7731 101.693 40.624 101.841 40.5168C101.99 40.4095 102.167 40.3492 102.35 40.3435C102.533 40.3378 102.713 40.3871 102.868 40.4848C103.022 40.5826 103.144 40.7245 103.218 40.8922C103.291 41.0598 103.313 41.2457 103.279 41.4256C103.246 41.6056 103.16 41.7716 103.032 41.9021C102.903 42.0325 102.739 42.1216 102.559 42.1578C102.38 42.194 102.194 42.1756 102.025 42.105C101.913 42.0651 101.811 42.0028 101.724 41.9219C101.638 41.841 101.568 41.7432 101.521 41.6346C101.473 41.5259 101.448 41.4087 101.448 41.2902C101.447 41.1716 101.471 41.0541 101.517 40.945ZM102.834 41.4903C102.861 41.4281 102.876 41.3611 102.877 41.2932C102.878 41.2252 102.866 41.1578 102.841 41.0947C102.815 41.0317 102.778 40.9743 102.73 40.926C102.682 40.8777 102.625 40.8394 102.563 40.8133C102.5 40.7873 102.433 40.774 102.365 40.7743C102.297 40.7746 102.23 40.7884 102.167 40.815C102.105 40.8416 102.048 40.8804 102.001 40.9291C101.953 40.9778 101.916 41.0355 101.892 41.0987C101.864 41.1609 101.849 41.2279 101.848 41.2958C101.847 41.3638 101.86 41.4312 101.885 41.4943C101.91 41.5573 101.948 41.6147 101.996 41.663C102.043 41.7113 102.1 41.7496 102.163 41.7757C102.226 41.8017 102.293 41.815 102.361 41.8147C102.429 41.8144 102.496 41.8006 102.558 41.774C102.621 41.7474 102.677 41.7086 102.725 41.6599C102.772 41.6112 102.809 41.5535 102.834 41.4903Z" fill="#263238"/>
<path d="M103.257 42.3399C103.27 42.3091 103.289 42.2813 103.313 42.258C103.337 42.2347 103.366 42.2166 103.397 42.2047C103.428 42.1927 103.461 42.1873 103.495 42.1886C103.528 42.1899 103.561 42.198 103.591 42.2123C103.622 42.2235 103.651 42.241 103.675 42.2636C103.699 42.2863 103.719 42.3137 103.732 42.3441C103.745 42.3745 103.752 42.4073 103.752 42.4405C103.753 42.4737 103.746 42.5066 103.733 42.5371C103.704 42.5955 103.653 42.6405 103.592 42.6633C103.531 42.686 103.464 42.6848 103.403 42.6598C103.343 42.6348 103.295 42.5879 103.268 42.5286C103.24 42.4693 103.237 42.4019 103.257 42.3399ZM104.052 40.4781L104.493 40.6609L103.84 42.0209L103.55 41.8991L104.052 40.4781Z" fill="#263238"/>
<path d="M105.925 56.3016L84.2566 47.3083L83.7108 48.6234L105.38 57.6167L105.925 56.3016Z" fill="#263238"/>
<path d="M104.522 59.6813L82.853 50.688L82.3072 52.0031L103.976 60.9964L104.522 59.6813Z" fill="#263238"/>
<path d="M103.117 63.0611L81.4477 54.0679L80.9018 55.383L102.571 64.3763L103.117 63.0611Z" fill="#263238"/>
<path d="M101.713 66.4408L80.0441 57.4475L79.4983 58.7626L101.167 67.7559L101.713 66.4408Z" fill="#263238"/>
<path d="M100.312 69.8244L78.6432 60.8312L78.0974 62.1463L99.7662 71.1396L100.312 69.8244Z" fill="#263238"/>
<path d="M98.9096 73.2014L77.2407 64.2081L76.6949 65.5233L98.3638 74.5165L98.9096 73.2014Z" fill="#263238"/>
<path d="M102.419 79.5354L96.5004 93.7947C96.2823 94.3203 95.8644 94.7379 95.3385 94.9554C94.8126 95.173 94.2218 95.1727 93.6961 94.9547L73.37 86.5128C74.6284 84.9851 76.3531 83.9124 78.2797 83.4591C81.258 82.7979 84.6597 83.6041 87.203 81.9279C89.2591 80.5794 90.2654 77.8679 92.5245 76.8993C93.6642 76.4092 94.9605 76.4411 96.1756 76.6818C98.4352 77.1807 100.563 78.1533 102.419 79.5354Z" fill="#92E3A9" stroke="#263238" stroke-miterlimit="10"/>
<path d="M88.914 32.6366C88.1281 33.2166 87.6177 34.0866 87.174 34.9566C86.1648 37.0156 85.4978 39.2312 84.4741 41.2844C83.4504 43.3376 81.9859 45.2835 79.9066 46.2521C79.325 46.5195 78.7042 46.6919 78.068 46.7625L85.84 28.0604C85.9477 27.7998 86.1057 27.5631 86.305 27.3637C86.5043 27.1644 86.741 27.0063 87.0015 26.8985C87.262 26.7908 87.5412 26.7355 87.8231 26.7358C88.105 26.7361 88.3841 26.792 88.6443 26.9004L93.6062 28.9594C93.2089 30.74 90.48 31.5056 88.914 32.6366Z" fill="#92E3A9" stroke="#263238" stroke-miterlimit="10"/>
<path opacity="0.1" d="M110.246 42.8968L109.211 45.3937C109.061 45.7551 108.774 46.0421 108.412 46.1917C108.05 46.3412 107.644 46.341 107.283 46.1912L90.2364 39.1152C89.9402 38.9925 89.6919 38.7768 89.5292 38.5005C89.3665 38.2243 89.2981 37.9025 89.3345 37.584C90.2248 37.584 91.3239 38.3438 92.0547 38.6425C93.2437 39.1297 94.4424 39.5869 95.6507 40.0142C99.4468 41.3627 103.614 42.427 107.462 41.2235C107.915 41.0856 108.352 40.905 108.77 40.6841L109.452 40.9741C109.812 41.1241 110.098 41.4108 110.246 41.7712C110.395 42.1316 110.395 42.5364 110.246 42.8968Z" fill="black"/>
<path d="M110.246 42.8968L109.211 45.3937C109.061 45.7551 108.774 46.0421 108.412 46.1917C108.05 46.3412 107.644 46.3411 107.283 46.1912L90.2364 39.1152C89.9402 38.9925 89.6919 38.7768 89.5292 38.5005C89.3665 38.2243 89.2981 37.9025 89.3345 37.584C89.3497 37.4472 89.3849 37.3133 89.4389 37.1867L90.4742 34.6898C90.5485 34.5105 90.6574 34.3476 90.7948 34.2104C90.9321 34.0733 91.0951 33.9646 91.2745 33.8905C91.4539 33.8164 91.6461 33.7784 91.8402 33.7787C92.0343 33.7791 92.2264 33.8176 92.4056 33.8923L109.452 40.9683C109.631 41.0426 109.793 41.1514 109.93 41.2886C110.067 41.4258 110.175 41.5886 110.249 41.7677C110.323 41.9468 110.361 42.1388 110.36 42.3325C110.36 42.5263 110.321 42.718 110.246 42.8968V42.8968Z" stroke="#263238" stroke-miterlimit="10"/>
<path d="M123.688 68.2747C123.688 68.2747 119.439 71.4299 118.03 72.442C118.03 72.442 111.198 68.0717 108.773 65.801C106.349 63.5303 105.293 62.7386 105.145 60.1663C105.145 60.1663 101.549 60.5491 101.172 59.7719C101.642 59.5041 102.169 59.3539 102.709 59.334C102.709 59.334 101.036 58.8526 101.033 58.2407L104.386 58.0551C104.386 58.0551 100.616 57.4896 100.65 57.1416C100.685 56.7936 105.29 56.2542 106.532 57.1416C106.532 57.1416 108.016 59.7516 108.625 61.5293C108.625 61.5293 113.236 65.6676 118.03 66.6159L119.77 64.7628L123.688 68.2747Z" fill="white"/>
<path d="M119.77 64.7628L118.03 66.6159C118.03 66.6159 111.925 65.0209 108.625 61.5293C108.625 61.5293 107.239 58.0493 106.531 57.1416C105.824 56.2339 100.366 56.7414 100.65 57.1416C100.934 57.5418 104.008 58.1827 104.008 58.1827" stroke="#263238" stroke-linecap="round" stroke-linejoin="round"/>
<path d="M123.688 68.1065C123.688 68.1065 120.811 70.8963 118.042 72.4565C118.042 72.4565 110.974 68.4922 107.48 64.4612L107.164 64.2437C106.509 63.796 105.98 63.1873 105.629 62.4763C105.278 61.7653 105.115 60.9758 105.157 60.1837V60.1837C103.901 60.566 102.55 60.4889 101.346 59.9662C101.268 59.9314 101.178 59.8763 101.184 59.7893C101.19 59.7597 101.202 59.7319 101.22 59.7078C101.238 59.6837 101.262 59.664 101.288 59.6501C101.68 59.3978 102.254 59.3601 102.721 59.3601C103.591 59.3195 104.4 59.0701 105.264 59.2296" stroke="#263238" stroke-linecap="round" stroke-linejoin="round"/>
<path d="M105.54 58.2117L104.38 58.1885L101.251 58.1305C101.164 58.1305 101.048 58.1537 101.045 58.2407C101.048 58.2804 101.065 58.3177 101.094 58.3451C101.353 58.6213 101.66 58.8491 101.999 59.0179C102.181 59.1353 102.376 59.2326 102.579 59.3079" stroke="#263238" stroke-linecap="round" stroke-linejoin="round"/>
<path d="M115.246 73.3004C115.246 73.3004 114.478 77.9259 117.549 78.7292" stroke="white" stroke-linecap="round" stroke-linejoin="round"/>
<path d="M108.651 89.0967C108.651 89.0967 111.502 88.9053 113.735 90.0305" stroke="white" stroke-linecap="round" stroke-linejoin="round"/>
<path d="M105.099 83.2764C104.581 82.8908 104.042 82.5345 103.484 82.2092" stroke="white" stroke-linecap="round" stroke-linejoin="round"/>
<path d="M116 46.806C117.058 46.703 118.126 46.7538 119.17 46.9568" stroke="#263238" stroke-linecap="round" stroke-linejoin="round"/>
<path d="M125.964 49.1463C125.964 49.1463 129.244 53.4441 130.065 56.724C130.065 56.724 128.699 64.554 125.964 68.7561C125.964 68.7561 122.568 68.6662 119.294 63.9247C120.641 61.7902 122.173 59.7776 123.871 57.9101" stroke="#263238" stroke-linecap="round" stroke-linejoin="round"/>
<path d="M116.774 73.3062L117.766 72.442" stroke="#263238" stroke-linecap="round" stroke-linejoin="round"/>
<path d="M121.701 49.2014C121.939 49.4833 122.252 49.6909 122.605 49.7994C122.957 49.9079 123.333 49.9127 123.688 49.8133C124.894 49.4421 125.962 45.53 125.962 45.53C125.962 45.53 123.932 48.4735 121.701 49.2014Z" fill="#263238"/>
<path d="M92.8 42.746V114.857C92.8 115.636 92.4908 116.382 91.9404 116.933C91.39 117.483 90.6436 117.792 89.8652 117.792H53.94C53.5544 117.793 53.1724 117.718 52.816 117.57C52.4596 117.423 52.1358 117.207 51.8631 116.934C51.5904 116.662 51.3743 116.338 51.227 115.981C51.0798 115.625 51.0044 115.243 51.0052 114.857V42.746C51.0052 41.9677 51.3144 41.2212 51.8648 40.6708C52.4152 40.1204 53.1616 39.8112 53.94 39.8112H89.9C90.6723 39.8204 91.4099 40.1336 91.9528 40.683C92.4956 41.2324 92.8001 41.9737 92.8 42.746Z" fill="#263238"/>
<path d="M94.0093 42.746V114.857C94.0093 115.636 93.7001 116.382 93.1497 116.933C92.5993 117.483 91.8529 117.792 91.0745 117.792H55.1145C54.3392 117.788 53.597 117.477 53.0507 116.927C52.5044 116.377 52.1985 115.633 52.2 114.857V42.746C52.2 41.9677 52.5092 41.2212 53.0596 40.6708C53.61 40.1204 54.3564 39.8112 55.1348 39.8112H91.0948C91.8696 39.8166 92.6109 40.1281 93.1569 40.6779C93.7029 41.2277 94.0093 41.9712 94.0093 42.746Z" fill="#263238"/>
<path d="M67.2336 43.0331H76.9486" stroke="white" stroke-width="2" stroke-linecap="round" stroke-linejoin="round"/>
<path opacity="0.1" d="M92.8 42.746V114.857C92.8 115.636 92.4908 116.382 91.9404 116.933C91.39 117.483 90.6436 117.792 89.8652 117.792H53.94C53.2982 117.792 52.6741 117.582 52.1623 117.195L83.52 39.8112H89.871C90.6484 39.8128 91.3933 40.1226 91.9425 40.6729C92.4916 41.2231 92.8 41.9687 92.8 42.746Z" fill="white"/>
<path d="M92.8 42.746V114.857C92.8 115.636 92.4908 116.382 91.9404 116.933C91.39 117.483 90.6436 117.792 89.8652 117.792H53.94C53.5544 117.793 53.1724 117.718 52.816 117.57C52.4596 117.423 52.1358 117.207 51.8631 116.934C51.5904 116.662 51.3743 116.338 51.227 115.981C51.0798 115.625 51.0044 115.243 51.0052 114.857V42.746C51.0052 41.9677 51.3144 41.2212 51.8648 40.6708C52.4152 40.1204 53.1616 39.8112 53.94 39.8112H89.9C90.6723 39.8204 91.4099 40.1336 91.9528 40.683C92.4956 41.2324 92.8001 41.9737 92.8 42.746Z" stroke="#263238" stroke-miterlimit="10"/>
<path d="M86.739 44.892H57.1155C55.0638 44.892 53.4006 46.5552 53.4006 48.6069V107.486C53.4006 109.537 55.0638 111.201 57.1155 111.201H86.739C88.7907 111.201 90.4539 109.537 90.4539 107.486V48.6069C90.4539 46.5552 88.7907 44.892 86.739 44.892Z" fill="white" stroke="#263238" stroke-miterlimit="10"/>
<path d="M73.5411 114.698C73.5417 115.046 73.439 115.386 73.2461 115.675C73.0533 115.965 72.7788 116.191 72.4576 116.324C72.1363 116.457 71.7827 116.492 71.4416 116.425C71.1004 116.357 70.787 116.189 70.541 115.943C70.2951 115.698 70.1276 115.384 70.0599 115.043C69.9922 114.702 70.0273 114.348 70.1606 114.027C70.294 113.706 70.5197 113.431 70.8092 113.238C71.0986 113.046 71.4388 112.943 71.7866 112.943C72.0175 112.941 72.2466 112.986 72.4603 113.073C72.674 113.161 72.8682 113.29 73.0315 113.453C73.1948 113.616 73.324 113.81 73.4115 114.024C73.499 114.238 73.543 114.467 73.5411 114.698Z" fill="#263238"/>
<path d="M83.9057 116.284V113.112L87.0783 114.698L83.9057 116.284Z" fill="#263238"/>
<path d="M59.8444 113.289H56.9647V116.168H59.8444V113.289Z" fill="#263238"/>
<path d="M82.4789 62.3993L82.0265 61.4017L80.8172 61.6134L80.7331 62.7125C80.3644 62.8519 80.0146 63.037 79.692 63.2635L78.7321 62.6835L77.8824 63.5535L78.4624 64.5192C78.0866 65.0741 77.8308 65.7013 77.7113 66.3607L76.6093 66.6275V67.86L77.72 68.15C77.7896 68.5263 77.9055 68.8926 78.0651 69.2404L77.3169 70.1104L78.01 71.1051L79.0772 70.6962C79.3519 70.9613 79.6554 71.1947 79.982 71.3922L79.866 72.5522L81.0057 72.9669L81.6495 72.0186C81.9138 72.0649 82.1816 72.0882 82.4499 72.0882C82.5639 72.0941 82.6781 72.0941 82.7921 72.0882L83.3489 73.0829L84.5234 72.7668L84.506 71.6416C84.8585 71.4753 85.1896 71.2669 85.492 71.021L86.5041 71.5082L87.29 70.528L86.6433 69.6261C86.8417 69.2846 86.9957 68.9192 87.1015 68.5386L88.1919 68.3588L88.2963 67.1495L87.2697 66.7812C87.2292 66.3847 87.1386 65.9949 87 65.6212L87.7772 64.8585L87.1682 63.8058L86.1213 64.0958C85.8654 63.7942 85.5732 63.5254 85.2513 63.2954L85.4485 62.2282L84.3465 61.7149L83.6563 62.553C83.2716 62.4537 82.8762 62.4021 82.4789 62.3993ZM82.4586 64.1973C83.0585 64.1973 83.645 64.3752 84.1439 64.7086C84.6427 65.0419 85.0315 65.5156 85.2611 66.0699C85.4907 66.6242 85.5508 67.2341 85.4337 67.8225C85.3167 68.4109 85.0278 68.9514 84.6035 69.3757C84.1793 69.7999 83.6388 70.0888 83.0504 70.2059C82.462 70.3229 81.852 70.2628 81.2978 70.0332C80.7435 69.8036 80.2697 69.4148 79.9364 68.916C79.6031 68.4172 79.4252 67.8307 79.4252 67.2307C79.4252 66.4262 79.7448 65.6547 80.3137 65.0858C80.8825 64.5169 81.6541 64.1973 82.4586 64.1973Z" fill="#263238"/>
<path d="M83.0009 61.7497L82.5456 60.7492L81.3392 60.9609L81.2551 62.0629C80.8864 62.203 80.5358 62.3871 80.2111 62.611L79.2541 62.031L78.4015 62.901L78.9815 63.8638C78.6053 64.4188 78.3485 65.0459 78.2275 65.7053L77.1284 65.9721V67.1872L78.2362 67.4772C78.3085 67.8541 78.4253 68.2211 78.5842 68.5705L77.8331 69.4405L78.5291 70.4352L79.5963 70.0292C79.8706 70.2947 80.1741 70.5282 80.5011 70.7252L80.3851 71.8678L81.5248 72.2854L82.1686 71.3371C82.4329 71.3835 82.7007 71.4068 82.969 71.4067C83.0833 71.4091 83.1976 71.4043 83.3112 71.3922L83.8651 72.3898L85.0396 72.0737L85.0251 70.9456C85.3768 70.779 85.7077 70.5717 86.0111 70.3279L87.0232 70.8122L87.8033 69.8842L87.1566 68.9823C87.3537 68.6401 87.5076 68.2748 87.6148 67.8948L88.7052 67.7121L88.8096 66.5028L87.7743 66.12C87.7329 65.7239 87.6433 65.3344 87.5075 64.96L88.2847 64.1973L87.6757 63.1446L86.6288 63.4346C86.3741 63.1318 86.0817 62.8628 85.7588 62.6342L85.956 61.5641L84.8569 61.0508L84.1667 61.8918C83.7853 61.7975 83.3938 61.7498 83.0009 61.7497ZM82.9777 63.5477C83.5777 63.5477 84.1641 63.7256 84.663 64.0589C85.1618 64.3922 85.5506 64.866 85.7802 65.4203C86.0098 65.9746 86.0699 66.5845 85.9528 67.1729C85.8358 67.7613 85.5469 68.3018 85.1226 68.726C84.6984 69.1503 84.1579 69.4392 83.5695 69.5562C82.9811 69.6733 82.3712 69.6132 81.8169 69.3836C81.2626 69.154 80.7888 68.7652 80.4555 68.2664C80.1222 67.7675 79.9443 67.1811 79.9443 66.5811C79.9443 65.7766 80.2639 65.005 80.8328 64.4362C81.4016 63.8673 82.1732 63.5477 82.9777 63.5477Z" fill="#E392E0" stroke="#263238" stroke-miterlimit="10"/>
<path d="M64.9252 52.0753L64.1973 50.4774L62.2659 50.8138L62.1296 52.5741C61.5401 52.7944 60.98 53.0866 60.4621 53.4441L58.928 52.5364L57.565 53.94L58.4843 55.4828C57.8828 56.3707 57.473 57.3742 57.2808 58.4292L55.5205 58.8584V60.8014L57.2924 61.2509C57.4072 61.8512 57.5942 62.4355 57.8492 62.9909L56.6486 64.38L57.7593 65.975L59.4674 65.3225C59.9064 65.7482 60.3929 66.1218 60.9174 66.4361L60.7289 68.266L62.553 68.933L63.5825 67.4163C64.0059 67.4892 64.4347 67.5261 64.8643 67.5265C65.0472 67.53 65.2302 67.5232 65.4124 67.5062L66.2998 69.0983L68.1819 68.5937L68.1558 66.7928C68.719 66.5257 69.2486 66.1928 69.7334 65.801L71.3516 66.5782L72.5986 65.0905L71.5662 63.6405C71.8827 63.0936 72.1292 62.509 72.2999 61.9005L74.0399 61.6105L74.2081 59.6762L72.5638 59.0962C72.4984 58.4593 72.3542 57.8329 72.1346 57.2315L73.3787 56.0106L72.4043 54.3257L70.7281 54.7868C70.3133 54.3027 69.8398 53.8722 69.3187 53.505L69.6348 51.7969L67.8745 50.9762L66.7667 52.3189C66.1651 52.1627 65.5467 52.0809 64.9252 52.0753ZM64.8904 56.55C65.5316 56.55 66.1585 56.7402 66.6917 57.0964C67.2248 57.4527 67.6404 57.959 67.8858 58.5515C68.1312 59.1439 68.1954 59.7958 68.0703 60.4247C67.9452 61.0537 67.6364 61.6314 67.183 62.0848C66.7296 62.5382 66.1518 62.847 65.5229 62.9721C64.894 63.0972 64.2421 63.033 63.6497 62.7876C63.0572 62.5422 62.5509 62.1267 62.1946 61.5935C61.8384 61.0603 61.6482 60.4335 61.6482 59.7922C61.6482 59.3664 61.7321 58.9448 61.895 58.5515C62.0579 58.1581 62.2968 57.8007 62.5978 57.4996C62.8989 57.1986 63.2563 56.9598 63.6497 56.7968C64.043 56.6339 64.4646 56.55 64.8904 56.55Z" fill="#263238"/>
<path d="M79.6224 93.2582L79.0801 92.0605L77.6301 92.3157L77.5257 93.6294C77.0856 93.797 76.6677 94.0181 76.2816 94.2877L75.1216 93.612L74.1037 94.6415L74.7881 95.8015C74.3381 96.4666 74.0319 97.2183 73.8891 98.0084L72.5725 98.3274V99.7774L73.8978 100.114C73.9822 100.565 74.1215 101.004 74.3125 101.422L73.4164 102.46L74.2458 103.652L75.5247 103.162C75.8526 103.48 76.2154 103.76 76.6064 103.997L76.4672 105.363L77.8302 105.862L78.6016 104.728C78.9178 104.782 79.2378 104.81 79.5586 104.812C79.6961 104.815 79.8336 104.809 79.9704 104.794L80.6345 105.986L82.0381 105.609L82.0207 104.261C82.4419 104.062 82.8373 103.813 83.1981 103.518L84.4103 104.098L85.3441 102.988L84.5698 101.906C84.8078 101.498 84.9929 101.062 85.1208 100.607L86.4229 100.389L86.5476 98.9393L85.318 98.5014C85.2686 98.0253 85.1615 97.5569 84.999 97.1065L85.927 96.193L85.1991 94.9344L83.9463 95.2795C83.6369 94.9177 83.2832 94.5962 82.8936 94.3225L83.1285 93.0436L81.8119 92.4288L80.9854 93.4322C80.5398 93.3195 80.0821 93.2611 79.6224 93.2582ZM79.5963 96.6135C80.0758 96.6135 80.5445 96.7557 80.9432 97.0221C81.3419 97.2885 81.6527 97.6672 81.8362 98.1102C82.0197 98.5532 82.0677 99.0406 81.9741 99.5109C81.8806 99.9812 81.6497 100.413 81.3106 100.752C80.9715 101.091 80.5396 101.322 80.0693 101.416C79.599 101.509 79.1115 101.461 78.6685 101.278C78.2255 101.094 77.8469 100.784 77.5805 100.385C77.3141 99.9862 77.1719 99.5174 77.1719 99.0379C77.1719 98.395 77.4273 97.7783 77.882 97.3236C78.3367 96.869 78.9533 96.6135 79.5963 96.6135Z" fill="#263238"/>
<path d="M80.1357 92.3911L79.5905 91.1934L78.1405 91.4457L78.039 92.7623C77.5982 92.9305 77.1795 93.1515 76.792 93.4206L75.6465 92.7449L74.6257 93.7744L75.313 94.9344C74.8633 95.5999 74.5562 96.3513 74.4111 97.1413L73.0945 97.4603V98.9103L74.4227 99.2467C74.5071 99.698 74.6464 100.137 74.8374 100.555L73.95 101.587L74.7823 102.779L76.0583 102.289C76.3868 102.606 76.7496 102.887 77.14 103.124L77.0008 104.49L78.3638 104.989L79.1352 103.855C79.4514 103.909 79.7714 103.937 80.0922 103.939C80.2287 103.942 80.3653 103.936 80.5011 103.922L81.1652 105.113L82.5717 104.736L82.5543 103.388C82.9752 103.189 83.3705 102.939 83.7317 102.646L84.9439 103.226L85.8748 102.115L85.1034 101.033C85.3399 100.625 85.5241 100.188 85.6515 99.7339L86.9565 99.5164L87.0812 98.0664L85.84 97.6343C85.791 97.1578 85.6829 96.6892 85.5181 96.2394L86.449 95.3259L85.7211 94.0673L84.4683 94.4124C84.1578 94.0497 83.8032 93.7272 83.4127 93.4525L83.6505 92.1765L82.3339 91.5617L81.5074 92.5651C81.0589 92.4517 80.5983 92.3932 80.1357 92.3911ZM80.1096 95.7464C80.5891 95.7464 81.0578 95.8886 81.4565 96.155C81.8552 96.4214 82.166 96.8 82.3495 97.243C82.5329 97.686 82.581 98.1735 82.4874 98.6438C82.3939 99.1141 82.163 99.5461 81.8239 99.8851C81.4848 100.224 81.0529 100.455 80.5826 100.549C80.1123 100.642 79.6248 100.594 79.1818 100.411C78.7388 100.227 78.3602 99.9164 78.0938 99.5178C77.8274 99.1191 77.6852 98.6503 77.6852 98.1708C77.6852 97.8524 77.7479 97.5372 77.8697 97.243C77.9916 96.9489 78.1702 96.6816 78.3953 96.4565C78.6204 96.2314 78.8877 96.0528 79.1818 95.931C79.476 95.8091 79.7912 95.7464 80.1096 95.7464Z" fill="#E392E0" stroke="#263238" stroke-miterlimit="10"/>
<path d="M89.9 82.998V81.1826C89.1075 81.0459 88.4018 80.6 87.9379 79.9431C87.4741 79.2862 87.29 78.472 87.4263 77.6794C87.6467 76.415 88.6356 75.1187 89.9 74.9012V72.384L88.7835 72.5812L88.6965 73.6774C88.3285 73.8196 87.9789 74.0056 87.6554 74.2313L86.6984 73.6513L85.84 74.53L86.42 75.4957C86.0434 76.0513 85.7876 76.6796 85.6689 77.3401L84.5669 77.6069V78.822L85.6747 79.0888C85.7466 79.4659 85.8634 79.8329 86.0227 80.1821L85.2687 81.0521L85.9676 82.0439L87.0348 81.635C87.3075 81.9032 87.6112 82.1378 87.9396 82.3339L87.8236 83.4794L88.9633 83.8941L89.6071 82.9487C89.7027 82.9755 89.8009 82.992 89.9 82.998Z" fill="#263238"/>
<path d="M64.1103 74.7272L63.0228 73.4106L61.2828 74.2168L61.5931 75.893C61.0819 76.254 60.6173 76.6767 60.2098 77.1516L58.58 76.6992L57.623 78.3522L58.8439 79.5499C58.6288 80.1402 58.4876 80.7549 58.4234 81.3798L56.8081 81.9598L56.9734 83.8593L58.6844 84.1493C58.8514 84.7457 59.0931 85.3187 59.4036 85.8545L58.3886 87.2726L59.6153 88.7226L61.2045 87.9599C61.6786 88.3458 62.1976 88.673 62.7502 88.9343L62.727 90.7033L64.5714 91.1963L65.4414 89.6332C65.6207 89.6502 65.8008 89.657 65.9808 89.6535C66.4017 89.6541 66.8218 89.6182 67.2365 89.5462L68.2486 91.0339L70.0379 90.3814L69.8552 88.5863C70.3685 88.2754 70.8451 87.9077 71.2762 87.4901L72.9524 88.1339L74.0428 86.5679L72.8654 85.2049C73.1147 84.6574 73.2977 84.082 73.4106 83.491L75.1506 83.0502V81.142L73.4106 80.7244C73.223 79.6858 72.8199 78.6979 72.2274 77.8244L73.1293 76.3106L71.7924 74.9592L70.2873 75.8495C69.7796 75.494 69.2303 75.2018 68.6517 74.9795L68.5183 73.2395L66.6217 72.9089L65.9083 74.4778C65.3012 74.489 64.6976 74.5728 64.1103 74.7272ZM65.9547 77.3198C66.8971 77.3198 67.8183 77.5993 68.6018 78.1228C69.3854 78.6464 69.9961 79.3905 70.3567 80.2612C70.7173 81.1318 70.8117 82.0898 70.6278 83.0141C70.444 83.9383 69.9902 84.7873 69.3238 85.4537C68.6575 86.12 67.8085 86.5738 66.8842 86.7577C65.96 86.9415 65.002 86.8472 64.1313 86.4865C63.2607 86.1259 62.5165 85.5152 61.993 84.7317C61.4694 83.9481 61.19 83.0269 61.19 82.0845C61.1896 81.4587 61.3126 80.839 61.5519 80.2607C61.7912 79.6825 62.1422 79.157 62.5847 78.7145C63.0272 78.272 63.5526 77.9211 64.1309 77.6817C64.7091 77.4424 65.3289 77.3195 65.9547 77.3198Z" fill="#263238"/>
<path d="M63.1707 74.2023L62.0832 72.8857L60.3432 73.6919L60.6535 75.3681C60.1411 75.7275 59.6763 76.1504 59.2702 76.6267L57.6259 76.1743L56.6689 77.8244L57.8898 79.025C57.6747 79.6143 57.5335 80.228 57.4693 80.852L55.8569 81.432L56.0193 83.3315L57.7303 83.6215C57.8981 84.2181 58.1408 84.7911 58.4524 85.3267L57.4374 86.7448L58.6612 88.1948L60.2504 87.4321C60.725 87.8165 61.2439 88.1426 61.7961 88.4036L61.7729 90.1726L63.6173 90.6685L64.4873 89.1054C64.6656 89.1224 64.8447 89.1292 65.0238 89.1257C65.4448 89.1253 65.8649 89.0884 66.2795 89.0155L67.2916 90.5061L69.0809 89.8507L68.8982 88.0556C69.412 87.7466 69.8888 87.3798 70.3192 86.9623L71.9954 87.6032L73.0858 86.0401L71.92 84.68C72.1693 84.1324 72.3523 83.5571 72.4652 82.9661L74.2052 82.5253V80.62L72.4652 80.1995C72.2781 79.1607 71.875 78.1727 71.282 77.2995L72.1839 75.7857L70.847 74.4343L69.3419 75.3246C68.8359 74.9663 68.2863 74.674 67.7063 74.4546L67.5729 72.7146L65.6763 72.384L64.9629 73.9529C64.3576 73.9632 63.7558 74.0469 63.1707 74.2023ZM65.0151 76.7949C65.9577 76.7944 66.8793 77.0734 67.6633 77.5967C68.4473 78.1201 69.0585 78.8642 69.4195 79.7349C69.7804 80.6057 69.875 81.5639 69.6913 82.4885C69.5075 83.413 69.0537 84.2623 68.3872 84.9288C67.7206 85.5953 66.8714 86.0492 65.9468 86.2329C65.0223 86.4167 64.064 86.3221 63.1933 85.9611C62.3225 85.6001 61.5784 84.9889 61.0551 84.2049C60.5318 83.421 60.2527 82.4993 60.2533 81.5567C60.2541 80.2941 60.756 79.0833 61.6488 78.1905C62.5417 77.2976 63.7524 76.7957 65.0151 76.7949Z" fill="#92E3A9" stroke="#263238" stroke-miterlimit="10"/>
<path d="M53.882 106.508L54.8941 107.99L56.6834 107.341L56.4978 105.543C57.0142 105.236 57.4922 104.869 57.9217 104.449L59.5979 105.09L60.6912 103.53L59.5109 102.167C59.761 101.618 59.9431 101.04 60.0532 100.447L61.7932 100.03V98.1215L60.0532 97.701C59.8661 96.6622 59.463 95.6742 58.87 94.801L59.7632 93.2814L58.4118 91.9358L56.9067 92.829C56.4006 92.4725 55.8522 92.1803 55.274 91.959L55.1377 90.2335L53.3977 89.9232V94.3602C54.5018 94.5531 55.5024 95.1293 56.2235 95.9873C56.9446 96.8453 57.34 97.9302 57.34 99.051C57.34 100.172 56.9446 101.257 56.2235 102.115C55.5024 102.973 54.5018 103.549 53.3977 103.742V106.592C53.5619 106.584 53.7245 106.556 53.882 106.508Z" fill="#263238"/>
<path d="M53.882 105.38L54.8941 106.865L56.6834 106.213L56.4978 104.415C57.0142 104.108 57.4922 103.741 57.9217 103.321L59.5979 103.962L60.6912 102.402L59.5109 101.039C59.761 100.49 59.9431 99.9124 60.0532 99.3192L61.7932 98.9016V96.9934L60.0532 96.5729C59.8661 95.5341 59.463 94.5461 58.87 93.6729L59.7632 92.1533L58.4118 90.8077L56.9067 91.7009C56.3999 91.3455 55.8516 91.0533 55.274 90.8309L55.1377 89.1054L53.3977 88.7951V93.2321C54.5018 93.425 55.5024 94.0012 56.2235 94.8592C56.9446 95.7172 57.34 96.8021 57.34 97.9229C57.34 99.0437 56.9446 100.129 56.2235 100.987C55.5024 101.845 54.5018 102.421 53.3977 102.614V105.464C53.5619 105.456 53.7245 105.428 53.882 105.38Z" fill="#E392E0" stroke="#263238" stroke-miterlimit="10"/>
<path d="M64.4032 51.3677L63.6782 49.7698L61.7468 50.1062L61.6105 51.8694C61.0209 52.0896 60.4608 52.3818 59.943 52.7394L58.4089 51.8346L57.0459 53.2092L57.9652 54.752C57.3622 55.6437 56.9514 56.651 56.7588 57.71L54.9985 58.1363V60.0822L56.7704 60.5288C56.8861 61.1289 57.073 61.7131 57.3272 62.2688L56.1266 63.6579L57.2373 65.2529L58.9483 64.5975C59.3871 65.0242 59.8736 65.3989 60.3983 65.714L60.2098 67.541L62.0339 68.208L63.0663 66.6913C63.4896 66.7653 63.9184 66.8032 64.3481 66.8044C64.5301 66.8084 64.7123 66.8006 64.8933 66.7812L65.7836 68.3762L67.6628 67.8716L67.6367 66.0678C68.2009 65.8025 68.7306 65.4694 69.2143 65.076L70.8325 65.8532L72.0824 64.3684L71.05 62.93C71.367 62.383 71.6144 61.7984 71.7866 61.19L73.5266 60.9L73.6919 58.9628L72.0476 58.3828C71.9829 57.747 71.8397 57.1217 71.6213 56.521L72.8625 55.2972L71.8881 53.6152L70.2148 54.0763C69.8 53.5922 69.3266 53.1616 68.8054 52.7945L69.1215 51.0835L67.3583 50.2628L66.2534 51.6055C65.6487 51.4508 65.0273 51.371 64.4032 51.3677ZM64.38 55.8569C65.0212 55.8569 65.6481 56.0471 66.1813 56.4033C66.7144 56.7596 67.13 57.266 67.3754 57.8584C67.6208 58.4508 67.685 59.1027 67.5599 59.7317C67.4348 60.3606 67.126 60.9383 66.6726 61.3917C66.2192 61.8451 65.6414 62.1539 65.0125 62.279C64.3836 62.4041 63.7317 62.3399 63.1393 62.0945C62.5468 61.8491 62.0405 61.4336 61.6842 60.9004C61.328 60.3672 61.1378 59.7404 61.1378 59.0991C61.1374 58.6733 61.221 58.2515 61.3838 57.8579C61.5466 57.4644 61.7854 57.1068 62.0866 56.8057C62.3877 56.5046 62.7453 56.2658 63.1388 56.103C63.5323 55.9402 63.9541 55.8566 64.38 55.8569Z" fill="#E392E0" stroke="#263238" stroke-miterlimit="10"/>
<path d="M90.4539 82.534V80.7186C89.7491 80.5979 89.1098 80.2319 88.6488 79.6853C88.1878 79.1387 87.935 78.4467 87.935 77.7316C87.935 77.0166 88.1878 76.3246 88.6488 75.778C89.1098 75.2314 89.7491 74.8654 90.4539 74.7446V71.92L89.3374 72.1172L89.2504 73.2163C88.882 73.3563 88.5323 73.5414 88.2093 73.7673L87.2523 73.1873L86.3823 74.0573L86.9623 75.023C86.5858 75.5775 86.3299 76.2049 86.2112 76.8645L85.1092 77.1342V78.3464L86.217 78.6161C86.2893 78.9931 86.4061 79.3601 86.565 79.7094L85.811 80.5794L86.5099 81.5741L87.5771 81.1652C87.8499 81.4325 88.1536 81.6662 88.4819 81.8612L88.3659 83.0212L89.5056 83.4359L90.1494 82.4905C90.2484 82.5188 90.3509 82.5335 90.4539 82.534Z" fill="#E392E0" stroke="#263238" stroke-miterlimit="10"/>
<path d="M64.3452 63.8029C66.943 63.8029 69.049 61.697 69.049 59.0991C69.049 56.5013 66.943 54.3953 64.3452 54.3953C61.7474 54.3953 59.6414 56.5013 59.6414 59.0991C59.6414 61.697 61.7474 63.8029 64.3452 63.8029Z" stroke="white" stroke-miterlimit="10"/>
<path d="M64.8904 87.7076C68.2874 87.7076 71.0413 84.9538 71.0413 81.5567C71.0413 78.1597 68.2874 75.4058 64.8904 75.4058C61.4934 75.4058 58.7395 78.1597 58.7395 81.5567C58.7395 84.9538 61.4934 87.7076 64.8904 87.7076Z" stroke="white" stroke-miterlimit="10"/>
<path d="M80.0893 101.868C82.141 101.868 83.8042 100.205 83.8042 98.1534C83.8042 96.1018 82.141 94.4385 80.0893 94.4385C78.0376 94.4385 76.3744 96.1018 76.3744 98.1534C76.3744 100.205 78.0376 101.868 80.0893 101.868Z" stroke="#263238" stroke-miterlimit="10"/>
<path d="M26.8743 48.43C27.8023 49.0564 28.8434 49.5436 29.6206 50.3498C30.5157 51.3313 31.0301 52.6007 31.0706 53.9284C31.1011 55.2467 30.8582 56.557 30.3572 57.7767C30.1191 58.5196 29.7052 59.1941 29.1508 59.7429C28.5813 60.2079 27.899 60.514 27.173 60.6303C25.7619 60.8913 24.3085 60.8037 22.939 60.3751C21.7174 60.0446 20.6024 59.4031 19.7026 58.5133C19.0275 57.7666 18.4913 56.9053 18.1192 55.97C17.4934 54.5452 17.0932 53.0316 16.9331 51.4837C16.8336 49.9857 16.8617 48.4819 17.0172 46.9887L17.3072 43.2854C17.3594 42.6126 17.2811 40.8697 18.1308 40.5913C18.8326 40.3622 19.9201 41.528 20.3928 41.9514C21.8689 43.2796 23.0753 44.8717 24.4528 46.3014C25.1813 47.0957 25.9932 47.8093 26.8743 48.43Z" fill="#263238"/>
<path d="M22.8665 53.94C22.8665 53.94 26.3204 54.1952 28.0691 53.1077C29.8178 52.0202 33.7821 56.4514 33.7821 56.4514L32.4162 79.634C32.4162 79.634 28.9362 80.3706 26.7989 79.344C24.6616 78.3174 23.6089 78.3725 23.084 77.1487C22.5591 75.9249 22.562 73.8891 20.3464 72.1201C18.1308 70.3511 18.1279 69.4289 17.4464 68.3124C16.7649 67.1959 14.5464 65.6386 14.3898 64.4032C14.2332 63.1678 14.4681 60.0532 14.4681 60.0532L18.6992 56.7559C18.6992 56.7559 19.7345 53.1077 22.8665 53.94Z" fill="#FF9ABB"/>
<path opacity="0.1" d="M25.5693 57.2373C25.7037 58.7622 26.0241 60.2649 26.5234 61.712C24.681 61.7616 22.8784 62.2593 21.2715 63.162C22.5048 65.033 24.0382 66.6879 25.81 68.0601C26.2235 67.5335 26.803 67.1625 27.4543 67.0074C27.7066 66.9465 27.9647 66.9233 28.2083 66.8392C28.4384 66.7567 28.6568 66.6446 28.8579 66.5057C29.9912 65.7534 30.9281 64.741 31.5905 63.553C32.2529 62.3649 32.6215 61.0357 32.6656 59.6762C32.6676 58.0711 32.3109 56.4858 31.6216 55.0362C31.0822 53.8501 30.2615 52.6408 29.0116 52.3247C28.3373 52.194 27.6417 52.2248 26.9816 52.4146C26.4654 52.5306 25.7056 52.6292 25.2416 52.9192C24.5398 53.3687 24.737 53.2092 24.969 53.9922C25.2834 55.0496 25.4846 56.1374 25.5693 57.2373Z" fill="black"/>
<path d="M20.59 42.7692C20.59 42.7692 22.417 45.9273 22.9506 47.4672C23.3401 48.7229 23.4393 50.0507 23.2406 51.3503C23.3753 52.1892 23.656 52.998 24.07 53.7399L25.1894 53.9371C25.1894 53.9371 26.7409 57.1938 26.8337 61.9962C26.8337 61.9962 24.1889 58.6496 22.3561 57.7738C20.5233 56.898 20.9061 56.9937 20.9061 56.9937C20.9061 56.9937 19.4097 54.3547 18.6267 53.5485C17.8437 52.7423 14.4594 55.3726 14.4594 55.3726L10.9156 49.7495L12.6556 46.4725L15.0162 44.6426L17.3217 42.7692H20.59Z" fill="white"/>
<path d="M34.6202 122.194C35.7907 123.7 37.4937 124.701 39.3791 124.99C39.817 125.054 40.3709 125.019 40.5536 124.616C40.6219 124.43 40.633 124.228 40.5855 124.036C40.1621 121.525 37.7609 119.889 36.4733 117.694C36.1079 117.073 35.6265 115.469 34.8319 115.582C34.4723 115.635 33.4747 116.742 33.292 117.079C32.5206 118.587 33.7096 121.014 34.6202 122.194Z" fill="white" stroke="#263238" stroke-miterlimit="10"/>
<path d="M33.292 117.088C33.292 117.088 33.4863 119.843 35.2379 121.438C36.9895 123.033 37.4622 123.949 40.5855 124.033" fill="white"/>
<path d="M33.292 117.088C33.292 117.088 33.4863 119.843 35.2379 121.438C36.9895 123.033 37.4622 123.949 40.5855 124.033" stroke="#263238" stroke-miterlimit="10"/>
<path d="M42.63 112.053C42.63 112.053 42.0819 115.179 43.2709 116.754C44.4599 118.329 45.6489 117.992 47.5687 118.343C48.8447 118.578 49.909 119.489 51.2633 119.152C52.4813 118.862 51.7215 117.969 51.1444 117.485C49.8655 116.418 48.3546 115.652 47.067 114.585C44.8253 112.74 45.2197 111.105 45.2197 111.105L42.63 112.053Z" fill="white" stroke="#263238" stroke-miterlimit="10"/>
<path d="M42.8475 115.968C43.3608 116.302 43.645 116.731 44.1815 117.03C44.9529 117.459 45.8867 117.395 46.7625 117.482C47.2776 117.531 47.7861 117.635 48.2792 117.792C48.7969 117.999 49.3329 118.156 49.88 118.262C50.4237 118.328 50.9748 118.234 51.4663 117.992" stroke="#263238" stroke-miterlimit="10"/>
<path d="M27.1353 79.3498C27.1353 79.3498 24.8588 86.9768 27.1353 94.9402C29.4118 102.904 27.2513 107.802 32.2567 117.702C32.2567 117.702 34.5999 119.637 36.2181 116.792C36.2181 116.792 35.757 105.751 34.974 103.136C34.191 100.52 37.5521 94.8039 36.4414 89.3548C35.6976 85.8866 34.5216 82.5253 32.9411 79.3498C32.9411 79.3498 29.1856 80.1473 27.1353 79.3498Z" fill="#263238"/>
<path d="M38.3409 97.9997C38.3409 97.9997 40.0084 109.078 42.0906 113.245C42.0906 113.245 44.5063 114.985 46.0056 112.743C46.0056 112.743 46.1738 94.3341 44.6716 92.9189C43.1694 91.5037 38.3409 97.9997 38.3409 97.9997Z" fill="#263238"/>
<path d="M64.4293 25.6737L74.2893 90.8454C74.3383 91.1701 74.3228 91.5012 74.2438 91.8199C74.1648 92.1386 74.0238 92.4386 73.8288 92.7028C73.6339 92.967 73.3887 93.1902 73.1075 93.3596C72.8263 93.529 72.5144 93.6414 72.1897 93.6903L36.8097 99.0379C36.4851 99.0881 36.1538 99.0736 35.8348 98.9953C35.5158 98.9169 35.2155 98.7763 34.9511 98.5814C34.6867 98.3865 34.4634 98.1413 34.2941 97.8598C34.1249 97.5783 34.0129 97.2661 33.9648 96.9412L24.1048 31.7724C24.0058 31.1168 24.1709 30.4487 24.564 29.9148C24.9572 29.3809 25.5461 29.0247 26.2015 28.9246L61.5815 23.577C62.0732 23.5026 62.5759 23.5766 63.0253 23.7894C63.4748 24.0023 63.8505 24.3443 64.1045 24.7718C64.2712 25.0481 64.3815 25.3546 64.4293 25.6737Z" fill="white"/>
<path d="M61.4409 30.2684L56.8072 30.9692L56.8675 31.3677L61.5012 30.667L61.4409 30.2684Z" fill="#263238"/>
<path d="M61.2686 29.1237L56.6349 29.8245L56.6952 30.223L61.3289 29.5222L61.2686 29.1237Z" fill="#263238"/>
<path d="M61.1827 27.9833L56.5432 28.6863L56.6037 29.0853L61.2432 28.3824L61.1827 27.9833Z" fill="#263238"/>
<path d="M63.4723 72.7378L63.9421 75.8466C63.9758 76.0704 63.965 76.2987 63.9103 76.5183C63.8557 76.7379 63.7582 76.9445 63.6235 77.1264C63.4888 77.3082 63.3195 77.4617 63.1253 77.578C62.9312 77.6943 62.716 77.7712 62.4921 77.8041L41.2496 81.0144C40.7977 81.0817 40.3377 80.9667 39.9706 80.6948C39.6035 80.4229 39.3594 80.0163 39.2921 79.5644L38.8223 76.4527C38.7886 76.2289 38.7994 76.0007 38.8541 75.7811C38.9087 75.5615 39.0062 75.3548 39.1409 75.173C39.2756 74.9911 39.4449 74.8376 39.6391 74.7213C39.8332 74.605 40.0484 74.5282 40.2723 74.4952L61.5119 71.2849C61.7361 71.2508 61.9649 71.2614 62.185 71.3161C62.4051 71.3708 62.6122 71.4684 62.7944 71.6035C62.9766 71.7385 63.1303 71.9082 63.2467 72.1029C63.363 72.2976 63.4397 72.5134 63.4723 72.7378Z" fill="#F25C54"/>
<path d="M47.85 75.7683L47.5223 77.6881L47.1598 77.7432L46.5044 76.4585L46.2492 77.8824L45.8867 77.9375L45.0167 76.1975L45.3676 76.1424L46.0317 77.4648L46.2956 76.0148L46.6088 75.9655L47.27 77.285L47.5281 75.8176L47.85 75.7683Z" fill="#263238"/>
<path d="M49.4914 76.7862L48.3981 76.9515C48.4348 77.0495 48.5061 77.1307 48.5985 77.1798C48.6909 77.2289 48.798 77.2426 48.8998 77.2183C48.9707 77.2098 49.0391 77.1865 49.1005 77.1501C49.1619 77.1136 49.215 77.0648 49.2565 77.0066L49.4624 77.1835C49.3719 77.3036 49.2491 77.3955 49.1084 77.4486C48.9676 77.5017 48.8147 77.5138 48.6674 77.4834C48.5201 77.4531 48.3844 77.3815 48.2762 77.2771C48.1679 77.1726 48.0915 77.0396 48.0559 76.8935C48.0386 76.7988 48.0409 76.7016 48.0628 76.6079C48.0847 76.5142 48.1255 76.426 48.1829 76.3488C48.2403 76.2715 48.313 76.2069 48.3964 76.1589C48.4798 76.111 48.5722 76.0806 48.6678 76.0699C48.7622 76.0521 48.8593 76.0543 48.9529 76.0762C49.0465 76.0981 49.1344 76.1393 49.2111 76.1972C49.2878 76.2551 49.3516 76.3283 49.3984 76.4123C49.4451 76.4962 49.4739 76.589 49.4827 76.6847C49.4856 76.7137 49.4885 76.7543 49.4914 76.7862ZM48.3604 76.734L49.1521 76.6151C49.1299 76.5188 49.0713 76.4349 48.9886 76.3809C48.9059 76.3268 48.8055 76.3068 48.7084 76.3251C48.6095 76.3367 48.5186 76.3853 48.4541 76.4612C48.3895 76.537 48.3561 76.6345 48.3604 76.734Z" fill="#263238"/>
<path d="M49.6074 75.4L49.9351 75.3507L50.2251 77.2908L49.8974 77.3401L49.6074 75.4Z" fill="#263238"/>
<path d="M50.4339 76.5368C50.418 76.4391 50.4224 76.3392 50.447 76.2433C50.4717 76.1474 50.5159 76.0577 50.5769 75.9797C50.638 75.9018 50.7145 75.8374 50.8017 75.7905C50.8889 75.7436 50.9848 75.7153 51.0835 75.7074C51.202 75.6813 51.3256 75.6895 51.4396 75.7311C51.5537 75.7727 51.6534 75.846 51.7273 75.9423L51.4982 76.1279C51.4535 76.073 51.3951 76.0309 51.3289 76.006C51.2627 75.981 51.191 75.9741 51.1212 75.9858C51.0111 76.0092 50.9141 76.0738 50.8501 76.1664C50.7861 76.259 50.76 76.3726 50.777 76.4838C50.7941 76.5951 50.853 76.6956 50.9418 76.7648C51.0307 76.8339 51.1425 76.8665 51.2546 76.8558C51.3245 76.8467 51.3907 76.8191 51.4463 76.7757C51.5019 76.7324 51.5448 76.6749 51.5707 76.6093L51.8433 76.7166C51.8017 76.831 51.7283 76.931 51.6317 77.005C51.5351 77.079 51.4193 77.1239 51.2981 77.1342C51.2018 77.1556 51.1022 77.1568 51.0054 77.1379C50.9086 77.119 50.8167 77.0802 50.7356 77.0242C50.6545 76.9681 50.5858 76.8958 50.5339 76.812C50.482 76.7281 50.4479 76.6345 50.4339 76.5368Z" fill="#263238"/>
<path d="M51.9332 76.3106C51.9054 76.1635 51.9222 76.0114 51.9814 75.8738C52.0407 75.7363 52.1397 75.6196 52.2658 75.5388C52.3919 75.458 52.5392 75.4167 52.6889 75.4202C52.8386 75.4237 52.9839 75.4719 53.106 75.5586C53.2281 75.6453 53.3215 75.7665 53.3743 75.9067C53.427 76.0469 53.4366 76.1996 53.4018 76.3453C53.3671 76.4909 53.2896 76.6229 53.1793 76.7242C53.069 76.8255 52.931 76.8916 52.7829 76.9138C52.6871 76.9338 52.5883 76.9338 52.4925 76.9138C52.3968 76.8939 52.3062 76.8543 52.2264 76.7977C52.1466 76.7411 52.0794 76.6686 52.029 76.5848C51.9785 76.5009 51.9459 76.4076 51.9332 76.3106ZM53.0932 76.1337C53.077 76.0531 53.0375 75.979 52.9796 75.9206C52.9218 75.8621 52.848 75.822 52.7675 75.805C52.6871 75.7881 52.6034 75.7951 52.5269 75.8253C52.4503 75.8554 52.3843 75.9073 52.337 75.9746C52.2897 76.0419 52.2631 76.1215 52.2606 76.2037C52.2581 76.2859 52.2798 76.3671 52.3229 76.4371C52.366 76.5071 52.4288 76.5629 52.5033 76.5977C52.5778 76.6324 52.6609 76.6445 52.7423 76.6325C52.7992 76.6255 52.854 76.6065 52.9032 76.5769C52.9523 76.5473 52.9946 76.5077 53.0275 76.4607C53.0603 76.4136 53.0828 76.3602 53.0937 76.3039C53.1045 76.2476 53.1033 76.1896 53.0903 76.1337H53.0932Z" fill="#263238"/>
<path d="M56.0512 75.5827L56.1701 76.3831L55.8453 76.4324L55.7293 75.6755C55.6916 75.4261 55.5582 75.3246 55.361 75.3536C55.1638 75.3826 55.0188 75.5479 55.071 75.8263L55.1783 76.5339L54.8535 76.5832L54.7375 75.8263C54.6998 75.5769 54.5664 75.4754 54.3692 75.5044C54.172 75.5334 54.027 75.7016 54.0792 75.9771L54.1836 76.6847L53.8588 76.734L53.6471 75.3391L53.9574 75.2927L53.9864 75.4696C54.0335 75.3971 54.0962 75.336 54.17 75.2908C54.2438 75.2457 54.3267 75.2176 54.4127 75.2086C54.5037 75.1885 54.5983 75.1929 54.687 75.2215C54.7757 75.25 54.8552 75.3016 54.9173 75.371C54.9697 75.2856 55.0408 75.213 55.1251 75.1588C55.2095 75.1046 55.305 75.0701 55.4045 75.0578C55.4824 75.0431 55.5626 75.0454 55.6395 75.0648C55.7164 75.0843 55.7881 75.1202 55.8497 75.1702C55.9113 75.2201 55.9612 75.2829 55.996 75.3542C56.0308 75.4255 56.0496 75.5034 56.0512 75.5827Z" fill="#263238"/>
<path d="M57.8202 75.5276L56.724 75.6929C56.7607 75.7908 56.8321 75.8717 56.9246 75.9204C57.0171 75.969 57.1243 75.982 57.2257 75.9568C57.2966 75.9496 57.3652 75.9271 57.4267 75.8911C57.4882 75.8551 57.5413 75.8063 57.5824 75.748L57.7883 75.9249C57.6978 76.0451 57.575 76.137 57.4343 76.1901C57.2935 76.2432 57.1406 76.2553 56.9933 76.2249C56.846 76.1945 56.7103 76.1229 56.6021 76.0185C56.4938 75.9141 56.4174 75.7811 56.3818 75.6349C56.3645 75.5401 56.3669 75.4426 56.389 75.3488C56.411 75.2549 56.4521 75.1665 56.5098 75.0892C56.5675 75.012 56.6405 74.9474 56.7243 74.8996C56.808 74.8518 56.9007 74.8217 56.9966 74.8113C57.0909 74.7936 57.1878 74.7957 57.2812 74.8177C57.3746 74.8396 57.4624 74.8809 57.5389 74.9388C57.6153 74.9967 57.6789 75.07 57.7253 75.1539C57.7718 75.2379 57.8001 75.3306 57.8086 75.4261C57.8143 75.4597 57.8182 75.4936 57.8202 75.5276ZM56.6892 75.4754L57.4809 75.3565C57.451 75.2654 57.3898 75.1878 57.3082 75.1375C57.2265 75.0872 57.1297 75.0674 57.0348 75.0816C56.94 75.0958 56.8532 75.1432 56.79 75.2153C56.7267 75.2874 56.691 75.3796 56.6892 75.4754Z" fill="#263238"/>
<path d="M69.4846 82.1825L36.1953 87.2263L36.2854 87.8206L69.5746 82.7768L69.4846 82.1825Z" fill="#263238"/>
<path d="M69.6037 83.7283L36.3563 88.7565L36.4461 89.35L69.6935 84.3218L69.6037 83.7283Z" fill="#263238"/>
<path d="M69.8512 85.3436L36.6038 90.3718L36.6935 90.9654L69.941 85.9372L69.8512 85.3436Z" fill="#263238"/>
<path d="M70.2224 87.041L36.9331 92.0848L37.0232 92.6791L70.3124 87.6352L70.2224 87.041Z" fill="#263238"/>
<path opacity="0.1" d="M63.4723 72.7378L63.9421 75.8466C63.9758 76.0704 63.965 76.2986 63.9103 76.5182C63.8557 76.7378 63.7582 76.9445 63.6235 77.1263C63.4887 77.3082 63.3195 77.4617 63.1253 77.578C62.9312 77.6943 62.716 77.7711 62.4921 77.8041L41.2496 81.0144C40.7977 81.0817 40.3377 80.9667 39.9706 80.6948C39.6035 80.4228 39.3594 80.0162 39.2921 79.5644V79.5296C43.2013 79.5731 56.8487 79.1555 61.2364 71.3255L61.509 71.2849C61.7334 71.2504 61.9625 71.2606 62.1829 71.3151C62.4034 71.3696 62.6108 71.4672 62.7934 71.6022C62.9759 71.7373 63.1299 71.9072 63.2464 72.1021C63.3629 72.297 63.4397 72.5131 63.4723 72.7378Z" fill="black"/>
<path d="M63.4723 72.7378L63.9421 75.8466C63.9758 76.0704 63.965 76.2987 63.9103 76.5183C63.8557 76.7379 63.7582 76.9445 63.6235 77.1264C63.4888 77.3082 63.3195 77.4617 63.1253 77.578C62.9312 77.6943 62.716 77.7712 62.4921 77.8041L41.2496 81.0144C40.7977 81.0817 40.3377 80.9667 39.9706 80.6948C39.6035 80.4229 39.3594 80.0163 39.2921 79.5644L38.8223 76.4527C38.7886 76.2289 38.7994 76.0007 38.8541 75.7811C38.9087 75.5615 39.0062 75.3548 39.1409 75.173C39.2756 74.9911 39.4449 74.8376 39.6391 74.7213C39.8332 74.605 40.0484 74.5282 40.2723 74.4952L61.5119 71.2849C61.7361 71.2508 61.9649 71.2614 62.185 71.3161C62.4051 71.3708 62.6122 71.4684 62.7944 71.6035C62.9766 71.7385 63.1303 71.9082 63.2467 72.1029C63.363 72.2976 63.4397 72.5134 63.4723 72.7378Z" stroke="#263238" stroke-linecap="round" stroke-linejoin="round"/>
<path d="M48.1719 67.9586C48.1877 68.0599 48.1729 68.1636 48.1295 68.2564C48.0861 68.3493 48.0161 68.4271 47.9283 68.48C47.8405 68.533 47.739 68.5585 47.6366 68.5535C47.5342 68.5485 47.4356 68.5131 47.3534 68.4519C47.2712 68.3906 47.2091 68.3063 47.175 68.2097C47.1409 68.113 47.1364 68.0084 47.162 67.9091C47.1875 67.8099 47.2421 67.7205 47.3187 67.6523C47.3952 67.5842 47.4903 67.5404 47.5919 67.5265C47.726 67.5074 47.8623 67.5421 47.9709 67.623C48.0796 67.704 48.1518 67.8246 48.1719 67.9586Z" fill="#263238"/>
<path d="M50.605 67.5903C50.6201 67.6909 50.6049 67.7936 50.5615 67.8856C50.5181 67.9775 50.4483 68.0545 50.3611 68.1067C50.2739 68.159 50.1731 68.1841 50.0715 68.179C49.97 68.1739 49.8723 68.1388 49.7907 68.078C49.7092 68.0173 49.6475 67.9337 49.6135 67.8378C49.5796 67.742 49.5749 67.6382 49.6 67.5397C49.6251 67.4411 49.6789 67.3523 49.7545 67.2844C49.8302 67.2164 49.9243 67.1725 50.025 67.1582C50.1591 67.1391 50.2954 67.1738 50.404 67.2548C50.5127 67.3357 50.5849 67.4563 50.605 67.5903Z" fill="#263238"/>
<path d="M53.041 67.222C53.0568 67.3233 53.042 67.427 52.9986 67.5198C52.9552 67.6127 52.8852 67.6906 52.7974 67.7435C52.7096 67.7964 52.6081 67.822 52.5057 67.8169C52.4033 67.8119 52.3047 67.7765 52.2225 67.7153C52.1403 67.6541 52.0782 67.5698 52.0441 67.4731C52.01 67.3764 52.0055 67.2718 52.0311 67.1726C52.0566 67.0733 52.1112 66.9839 52.1878 66.9158C52.2643 66.8476 52.3594 66.8038 52.461 66.7899C52.595 66.7716 52.7309 66.8066 52.8393 66.8874C52.9478 66.9682 53.0202 67.0884 53.041 67.222Z" fill="#263238"/>
<path d="M45.0688 30.4012L28.9741 32.8353C28.3819 32.9249 27.9743 33.4776 28.0639 34.0699L28.116 34.414C28.2055 35.0063 28.7583 35.4138 29.3505 35.3242L45.4452 32.8901C46.0375 32.8005 46.445 32.2478 46.3554 31.6555L46.3034 31.3114C46.2138 30.7192 45.6611 30.3116 45.0688 30.4012Z" fill="white" stroke="#263238" stroke-miterlimit="10"/>
<path d="M29.7975 34.6492L29.609 33.408" stroke="#263238" stroke-linecap="round" stroke-linejoin="round"/>
<path d="M62.1356 34.8633L28.9426 39.8833L33.2228 68.1845L66.4157 63.1645L62.1356 34.8633Z" fill="#92E3A9"/>
<path opacity="0.5" d="M62.1356 34.8633L28.9426 39.8833L33.2228 68.1845L66.4157 63.1645L62.1356 34.8633Z" fill="white"/>
<path d="M62.1356 34.8633L28.9426 39.8833L33.2228 68.1845L66.4157 63.1645L62.1356 34.8633Z" stroke="#263238" stroke-miterlimit="10"/>
<path d="M59.7106 44.1242C60.7649 42.6768 60.4462 40.6489 58.9989 39.5946C57.5515 38.5403 55.5236 38.859 54.4693 40.3063C53.415 41.7537 53.7337 43.7817 55.181 44.8359C56.6284 45.8902 58.6564 45.5715 59.7106 44.1242Z" fill="#F8DD54" stroke="#263238" stroke-miterlimit="10"/>
<path d="M64.0378 47.4672L66.41 63.1707L33.2166 68.1877L31.7318 58.3683C32.7468 56.0483 34.2577 53.3774 36.0209 52.5973C39.295 51.1473 42.6619 60.7956 48.8708 59.2209C55.0797 57.6462 56.2426 47.5368 64.0378 47.4672Z" fill="#92E3A9"/>
<path opacity="0.1" d="M64.0378 47.4672L66.41 63.1707L33.2166 68.1877L31.7318 58.3683C32.7468 56.0483 34.2577 53.3774 36.0209 52.5973C39.295 51.1473 42.6619 60.7956 48.8708 59.2209C55.0797 57.6462 56.2426 47.5368 64.0378 47.4672Z" fill="black"/>
<path d="M64.0378 47.4672L66.41 63.1707L33.2166 68.1877L31.7318 58.3683C32.7468 56.0483 34.2577 53.3774 36.0209 52.5973C39.295 51.1473 42.6619 60.7956 48.8708 59.2209C55.0797 57.6462 56.2426 47.5368 64.0378 47.4672Z" stroke="#263238" stroke-miterlimit="10"/>
<path opacity="0.1" d="M64.4293 25.6737L74.2893 90.8454C74.3383 91.1701 74.3228 91.5012 74.2438 91.8199C74.1648 92.1386 74.0238 92.4386 73.8288 92.7028C73.6339 92.967 73.3887 93.1901 73.1075 93.3596C72.8263 93.529 72.5144 93.6414 72.1897 93.6903L36.8097 99.0379C36.1641 99.138 35.5049 98.9808 34.974 98.6C42.8591 91.6081 67.715 66.0823 64.1074 24.766C64.2738 25.0443 64.3832 25.3528 64.4293 25.6737Z" fill="black"/>
<path d="M64.4293 25.6737L74.2893 90.8454C74.3383 91.1701 74.3228 91.5012 74.2438 91.8199C74.1648 92.1386 74.0238 92.4386 73.8288 92.7028C73.6338 92.967 73.3887 93.1902 73.1075 93.3596C72.8263 93.529 72.5144 93.6414 72.1897 93.6903L36.8097 99.0379C36.4851 99.0881 36.1538 99.0736 35.8348 98.9953C35.5158 98.9169 35.2155 98.7763 34.9511 98.5814C34.6867 98.3865 34.4634 98.1413 34.2941 97.8598C34.1249 97.5783 34.0129 97.2661 33.9648 96.9412L24.1048 31.7724C24.0058 31.1168 24.1709 30.4487 24.564 29.9148C24.9572 29.3809 25.5461 29.0247 26.2015 28.9246L61.5815 23.577C62.0732 23.5026 62.5759 23.5766 63.0253 23.7894C63.4748 24.0023 63.8505 24.3443 64.1045 24.7718C64.2712 25.0481 64.3815 25.3546 64.4293 25.6737Z" stroke="#263238" stroke-miterlimit="10"/>
<path d="M20.9612 43.3028C20.9612 43.3028 22.8781 47.0728 23.3566 48.459C23.8351 49.8452 23.3566 52.1159 22.1444 53.1425C20.9322 54.1691 19.5895 54.1053 18.0844 53.3629C17.0363 52.8165 16.0319 52.1902 15.08 51.4895C14.975 51.4887 14.8702 51.4975 14.7668 51.5156C14.4768 51.5156 13.3168 51.0603 12.9108 50.3295C11.9335 48.5112 14.094 49.1695 14.529 49.4595" stroke="#263238" stroke-linecap="round" stroke-linejoin="round"/>
<path d="M20.59 47.1714C20.7926 47.64 21.1323 48.0363 21.5644 48.3082C21.7563 48.3919 21.921 48.5275 22.04 48.6997C22.0808 48.8011 22.0946 48.9114 22.0798 49.0197C22.0651 49.128 22.0224 49.2306 21.9559 49.3174C21.819 49.4911 21.6508 49.6376 21.46 49.7495" stroke="#263238" stroke-linecap="round" stroke-linejoin="round"/>
<path d="M19.7809 51.1995C19.9972 51.2921 20.23 51.3398 20.4653 51.3398C20.7006 51.3398 20.9334 51.2921 21.1497 51.1995" stroke="#263238" stroke-linecap="round" stroke-linejoin="round"/>
<path d="M19.3459 48.2038C19.4648 48.4561 19.4735 48.7026 19.3662 48.7548C19.2589 48.807 19.0762 48.6446 18.9486 48.3894C18.821 48.1342 18.821 47.8906 18.9312 47.8384C19.0414 47.7862 19.227 47.9486 19.3459 48.2038Z" fill="#263238"/>
<path d="M21.5557 46.7161C21.6746 46.9684 21.6833 47.2178 21.5731 47.2671C21.4629 47.3164 21.2831 47.1569 21.1584 46.9046C21.0337 46.6523 21.0308 46.4029 21.141 46.3507C21.2512 46.2985 21.4368 46.4638 21.5557 46.7161Z" fill="#263238"/>
<path d="M18.6963 46.7451C18.6963 46.7451 17.7828 46.7451 17.5624 47.8558" stroke="#263238" stroke-linecap="round" stroke-linejoin="round"/>
<path d="M20.329 45.762C20.329 45.762 20.6567 45.0283 21.2686 45.472" stroke="#263238" stroke-linecap="round" stroke-linejoin="round"/>
<path d="M14.3608 49.3696C14.413 49.4073 17.1506 47.9544 17.4725 43.8335C17.4725 43.8335 19.0414 45.0341 21.6021 44.0336C21.6021 44.0336 19.4967 39.6836 16.414 40.2955C13.3313 40.9074 10.6459 42.92 10.5415 46.5421C10.469 49.1086 11.02 51.6635 11.02 54.23C11.0664 55.5358 10.9099 56.8408 10.556 58.0986C9.9035 60.1895 8.4303 61.5786 9.0654 63.9537C9.5323 65.6937 11.0954 67.7237 12.9514 67.4801C13.7402 67.3757 15.5614 66.9175 15.8514 66.5521C15.3861 65.9128 15.0663 65.1793 14.9147 64.4032C14.79 62.2862 15.2685 61.48 15.2685 61.48L20.1753 55.8105L18.8094 53.6703L15.08 51.4895C15.08 51.4895 13.5314 51.6693 12.6817 49.7495C12.5164 48.6098 14.3608 49.3696 14.3608 49.3696Z" fill="#263238"/>
<path d="M25.9231 68.3153C25.9231 68.3153 22.185 65.4559 20.5349 62.2862" stroke="#263238" stroke-linecap="round" stroke-linejoin="round"/>
<path d="M28.0691 67.1321C27.9705 66.8653 27.5819 66.8421 27.3354 66.9813C27.1112 67.1605 26.899 67.3542 26.7003 67.5613C26.5201 67.6722 26.3511 67.8004 26.1957 67.9441C26.0588 68.1341 25.9756 68.3575 25.955 68.5908C25.7878 69.5648 25.7741 70.5589 25.9144 71.5372" stroke="#263238" stroke-linecap="round" stroke-linejoin="round"/>
<path d="M24.7805 71.5285C24.8609 70.7715 25.0474 70.0296 25.3344 69.3245" stroke="#263238" stroke-linecap="round" stroke-linejoin="round"/>
<path d="M29.609 72.3724C29.6847 72.4437 29.7451 72.5298 29.7864 72.6253C29.8276 72.7208 29.8489 72.8238 29.8489 72.9278C29.8489 73.0318 29.8276 73.1348 29.7864 73.2303C29.7451 73.3258 29.6847 73.4118 29.609 73.4831C29.482 73.577 29.3483 73.6614 29.2088 73.7354C28.797 74.0022 28.5737 74.4807 28.1996 74.7968C27.6834 75.2318 26.8221 75.2666 26.3668 74.7678C25.9869 74.3444 25.8912 73.4512 25.9115 72.8828" stroke="#263238" stroke-linecap="round" stroke-linejoin="round"/>
<path d="M26.158 74.791C23.7249 75.081 15.863 66.555 15.863 66.555C14.6885 65.105 14.6653 62.9039 15.5411 61.2596C16.3792 59.6849 18.0322 58.6989 19.0008 57.1996" stroke="#263238" stroke-linecap="round" stroke-linejoin="round"/>
<path d="M19.0211 53.8472C19.7262 54.6733 20.2428 55.6432 20.5349 56.6892" stroke="#263238" stroke-linecap="round" stroke-linejoin="round"/>
<path d="M23.2609 51.3503C23.2657 51.9242 23.389 52.4909 23.6231 53.0148C23.8571 53.5388 24.1969 54.0088 24.621 54.3953" stroke="#263238" stroke-linecap="round" stroke-linejoin="round"/>
<path d="M19.4851 56.3354C18.9051 56.9357 19.1516 58.1885 19.8795 58.5974C20.6074 59.0063 21.6195 58.6467 22.4895 58.8555C22.609 58.8775 22.7203 58.9317 22.8114 59.0121C22.9401 59.1865 22.999 59.4026 22.9767 59.6182C22.9767 60.0735 23.0666 60.5868 23.4407 60.8478C23.6866 60.9799 23.9552 61.0645 24.2324 61.0972C25.7143 61.4423 26.7119 62.35 27.4659 63.6724" stroke="#263238" stroke-linecap="round" stroke-linejoin="round"/>
<path d="M20.3464 56.7646C22.0454 57.4525 23.5824 58.4871 24.8592 59.8023C26.136 61.1175 27.1245 62.6845 27.7617 64.4032" stroke="#263238" stroke-linecap="round" stroke-linejoin="round"/>
<path d="M17.284 68.0833C18.154 70.9021 21.3237 72.2767 22.3068 75.0433C22.5591 75.7509 22.6606 76.5252 23.084 77.1429C23.6263 77.9317 24.5775 78.3029 25.4736 78.648C26.0826 78.88 26.7902 79.3933 27.3992 79.6224" stroke="#263238" stroke-linecap="round" stroke-linejoin="round"/>
<path d="M30.247 79.7703C29.4814 79.6746 28.8869 79.0714 28.4113 78.4653C27.9357 77.8592 27.4862 77.1893 26.7989 76.8413" stroke="#263238" stroke-linecap="round" stroke-linejoin="round"/>
<path d="M24.1135 53.8211C25.1318 54.0222 26.1864 53.9276 27.1527 53.5485" stroke="#263238" stroke-linecap="round" stroke-linejoin="round"/>
<path d="M25.2909 53.94C26.1261 56.4833 26.9961 59.5805 26.8047 62.2891" stroke="#263238" stroke-linecap="round" stroke-linejoin="round"/>
<path d="M27.4688 67.6251C27.4688 67.6251 27.5848 71.1051 29.1073 72.587C29.1073 72.587 32.8773 68.8663 34.4665 66.5637C36.0557 64.2611 37.8566 61.5322 38.3786 59.624C38.9006 57.7158 37.5695 57.1996 37.5695 57.1996C37.5695 57.1996 37.1693 56.115 36.7604 56.2368C36.3515 56.3586 35.6729 58.3509 35.6729 58.3509C35.6729 58.3509 35.2495 57.3243 34.4056 58.8207C33.5617 60.3171 33.1586 61.0044 33.7386 62.3645L30.4268 65.5951L27.4688 67.6251Z" fill="white"/>
<path d="M35.2031 59.6037C35.2031 59.6037 35.9194 57.6259 35.2031 58.0522C34.4868 58.4785 33.814 59.6472 33.5617 60.32C33.3094 60.9928 33.7386 62.3645 33.7386 62.3645C31.9493 64.7512 29.145 66.5956 27.4688 67.6251" stroke="#263238" stroke-linecap="round" stroke-linejoin="round"/>
<path d="M35.293 59.334C35.293 59.334 36.2993 56.5732 36.7604 56.2368C37.2215 55.9004 37.2244 56.9937 37.2244 56.9937C37.2244 56.9937 37.9407 57.3388 38.0654 57.7564C38.1901 58.174 38.5294 58.4843 38.4453 59.3369C38.3612 60.1895 36.2181 63.9769 36.2181 63.9769C35.5163 65.4646 31.9261 69.8842 29.1073 72.5812" stroke="#263238" stroke-linecap="round" stroke-linejoin="round"/>
<path d="M37.2244 56.9937C37.1555 57.5437 37.0529 58.089 36.917 58.6264" stroke="#263238" stroke-linecap="round" stroke-linejoin="round"/>
<path d="M27.55 67.5323C27.4856 67.5924 27.4372 67.6677 27.4094 67.7513C27.3815 67.8348 27.375 67.9241 27.3905 68.0108C27.4463 69.8542 28.1379 71.6216 29.348 73.0133" stroke="#263238" stroke-linecap="round" stroke-linejoin="round"/>
<path opacity="0.2" d="M12.2873 50.2251C12.8457 52.2839 13.0197 54.4281 12.8006 56.55C12.6324 58.1798 12.2206 59.7922 12.2844 61.4307C12.3482 63.0692 12.9543 64.8092 14.3434 65.6792" stroke="white" stroke-linecap="round" stroke-linejoin="round"/>
<path opacity="0.2" d="M13.5952 47.8732C14.4945 46.2883 15.2608 44.6316 15.8862 42.92" stroke="white" stroke-linecap="round" stroke-linejoin="round"/>
<path opacity="0.2" d="M12.5628 47.5948C13.2733 45.8983 13.1225 43.9582 13.6996 42.2124" stroke="white" stroke-linecap="round" stroke-linejoin="round"/>
<path d="M19.5953 53.8704C19.5953 53.8704 21.5354 54.7839 22.5098 54.3953C23.4842 54.0067 23.0753 51.8317 23.0753 51.8317C23.0753 51.8317 22.098 54.2764 19.5953 53.8704Z" fill="#263238"/>
</svg>
